%TF.GenerationSoftware,KiCad,Pcbnew,(6.0.5)*%
%TF.CreationDate,2023-09-23T13:50:41+09:00*%
%TF.ProjectId,20230918_Barcoder8,32303233-3039-4313-985f-426172636f64,rev?*%
%TF.SameCoordinates,Original*%
%TF.FileFunction,Legend,Bot*%
%TF.FilePolarity,Positive*%
%FSLAX46Y46*%
G04 Gerber Fmt 4.6, Leading zero omitted, Abs format (unit mm)*
G04 Created by KiCad (PCBNEW (6.0.5)) date 2023-09-23 13:50:41*
%MOMM*%
%LPD*%
G01*
G04 APERTURE LIST*
G04 Aperture macros list*
%AMRoundRect*
0 Rectangle with rounded corners*
0 $1 Rounding radius*
0 $2 $3 $4 $5 $6 $7 $8 $9 X,Y pos of 4 corners*
0 Add a 4 corners polygon primitive as box body*
4,1,4,$2,$3,$4,$5,$6,$7,$8,$9,$2,$3,0*
0 Add four circle primitives for the rounded corners*
1,1,$1+$1,$2,$3*
1,1,$1+$1,$4,$5*
1,1,$1+$1,$6,$7*
1,1,$1+$1,$8,$9*
0 Add four rect primitives between the rounded corners*
20,1,$1+$1,$2,$3,$4,$5,0*
20,1,$1+$1,$4,$5,$6,$7,0*
20,1,$1+$1,$6,$7,$8,$9,0*
20,1,$1+$1,$8,$9,$2,$3,0*%
G04 Aperture macros list end*
%ADD10C,0.150000*%
%ADD11C,0.200000*%
%ADD12RoundRect,0.100000X-0.850000X-0.850000X0.850000X-0.850000X0.850000X0.850000X-0.850000X0.850000X0*%
%ADD13C,2.400000*%
G04 APERTURE END LIST*
D10*
X147619790Y-80526000D02*
X147715028Y-80478380D01*
X147857885Y-80478380D01*
X148000742Y-80526000D01*
X148095980Y-80621238D01*
X148143600Y-80716476D01*
X148191219Y-80906952D01*
X148191219Y-81049809D01*
X148143600Y-81240285D01*
X148095980Y-81335523D01*
X148000742Y-81430761D01*
X147857885Y-81478380D01*
X147762647Y-81478380D01*
X147619790Y-81430761D01*
X147572171Y-81383142D01*
X147572171Y-81049809D01*
X147762647Y-81049809D01*
X147095980Y-81478380D02*
X146905504Y-81478380D01*
X146810266Y-81430761D01*
X146762647Y-81383142D01*
X146667409Y-81240285D01*
X146619790Y-81049809D01*
X146619790Y-80668857D01*
X146667409Y-80573619D01*
X146715028Y-80526000D01*
X146810266Y-80478380D01*
X147000742Y-80478380D01*
X147095980Y-80526000D01*
X147143600Y-80573619D01*
X147191219Y-80668857D01*
X147191219Y-80906952D01*
X147143600Y-81002190D01*
X147095980Y-81049809D01*
X147000742Y-81097428D01*
X146810266Y-81097428D01*
X146715028Y-81049809D01*
X146667409Y-81002190D01*
X146619790Y-80906952D01*
X145429314Y-81478380D02*
X145429314Y-80478380D01*
X145429314Y-80954571D02*
X144857885Y-80954571D01*
X144857885Y-81478380D02*
X144857885Y-80478380D01*
X144381695Y-81383142D02*
X144334076Y-81430761D01*
X144381695Y-81478380D01*
X144429314Y-81430761D01*
X144381695Y-81383142D01*
X144381695Y-81478380D01*
X144048361Y-80478380D02*
X143476933Y-80478380D01*
X143762647Y-81478380D02*
X143762647Y-80478380D01*
X143143600Y-81383142D02*
X143095980Y-81430761D01*
X143143600Y-81478380D01*
X143191219Y-81430761D01*
X143143600Y-81383142D01*
X143143600Y-81478380D01*
D11*
X152047057Y-78124857D02*
X151832771Y-78196285D01*
X151761342Y-78267714D01*
X151689914Y-78410571D01*
X151689914Y-78624857D01*
X151761342Y-78767714D01*
X151832771Y-78839142D01*
X151975628Y-78910571D01*
X152547057Y-78910571D01*
X152547057Y-77410571D01*
X152047057Y-77410571D01*
X151904200Y-77482000D01*
X151832771Y-77553428D01*
X151761342Y-77696285D01*
X151761342Y-77839142D01*
X151832771Y-77982000D01*
X151904200Y-78053428D01*
X152047057Y-78124857D01*
X152547057Y-78124857D01*
X150404200Y-78910571D02*
X150404200Y-78124857D01*
X150475628Y-77982000D01*
X150618485Y-77910571D01*
X150904200Y-77910571D01*
X151047057Y-77982000D01*
X150404200Y-78839142D02*
X150547057Y-78910571D01*
X150904200Y-78910571D01*
X151047057Y-78839142D01*
X151118485Y-78696285D01*
X151118485Y-78553428D01*
X151047057Y-78410571D01*
X150904200Y-78339142D01*
X150547057Y-78339142D01*
X150404200Y-78267714D01*
X149689914Y-78910571D02*
X149689914Y-77910571D01*
X149689914Y-78196285D02*
X149618485Y-78053428D01*
X149547057Y-77982000D01*
X149404200Y-77910571D01*
X149261342Y-77910571D01*
X148118485Y-78839142D02*
X148261342Y-78910571D01*
X148547057Y-78910571D01*
X148689914Y-78839142D01*
X148761342Y-78767714D01*
X148832771Y-78624857D01*
X148832771Y-78196285D01*
X148761342Y-78053428D01*
X148689914Y-77982000D01*
X148547057Y-77910571D01*
X148261342Y-77910571D01*
X148118485Y-77982000D01*
X147261342Y-78910571D02*
X147404200Y-78839142D01*
X147475628Y-78767714D01*
X147547057Y-78624857D01*
X147547057Y-78196285D01*
X147475628Y-78053428D01*
X147404200Y-77982000D01*
X147261342Y-77910571D01*
X147047057Y-77910571D01*
X146904200Y-77982000D01*
X146832771Y-78053428D01*
X146761342Y-78196285D01*
X146761342Y-78624857D01*
X146832771Y-78767714D01*
X146904200Y-78839142D01*
X147047057Y-78910571D01*
X147261342Y-78910571D01*
X145475628Y-78910571D02*
X145475628Y-77410571D01*
X145475628Y-78839142D02*
X145618485Y-78910571D01*
X145904200Y-78910571D01*
X146047057Y-78839142D01*
X146118485Y-78767714D01*
X146189914Y-78624857D01*
X146189914Y-78196285D01*
X146118485Y-78053428D01*
X146047057Y-77982000D01*
X145904200Y-77910571D01*
X145618485Y-77910571D01*
X145475628Y-77982000D01*
X144189914Y-78839142D02*
X144332771Y-78910571D01*
X144618485Y-78910571D01*
X144761342Y-78839142D01*
X144832771Y-78696285D01*
X144832771Y-78124857D01*
X144761342Y-77982000D01*
X144618485Y-77910571D01*
X144332771Y-77910571D01*
X144189914Y-77982000D01*
X144118485Y-78124857D01*
X144118485Y-78267714D01*
X144832771Y-78410571D01*
X143475628Y-78910571D02*
X143475628Y-77910571D01*
X143475628Y-78196285D02*
X143404200Y-78053428D01*
X143332771Y-77982000D01*
X143189914Y-77910571D01*
X143047057Y-77910571D01*
%TO.C,G\u002A\u002A\u002A*%
G36*
X137539567Y-78770809D02*
G01*
X137391789Y-78770807D01*
X137244010Y-78770805D01*
X137238658Y-76764601D01*
X137233307Y-74758397D01*
X137539567Y-74758397D01*
X137539567Y-78770809D01*
G37*
G36*
X136751415Y-75627156D02*
G01*
X136751414Y-75643362D01*
X136751217Y-75815057D01*
X136750712Y-75975032D01*
X136749933Y-76119842D01*
X136748911Y-76246046D01*
X136747680Y-76350198D01*
X136746274Y-76428856D01*
X136744725Y-76478577D01*
X136743066Y-76495915D01*
X136740278Y-76495351D01*
X136713762Y-76484999D01*
X136671416Y-76465729D01*
X136608115Y-76435542D01*
X136608115Y-74758397D01*
X136751415Y-74758397D01*
X136751415Y-75627156D01*
G37*
G36*
X138972572Y-78770809D02*
G01*
X138668058Y-78770809D01*
X138668058Y-74758397D01*
X138972572Y-74758397D01*
X138972572Y-78770809D01*
G37*
G36*
X141122078Y-78770809D02*
G01*
X140817564Y-78770809D01*
X140817564Y-74758397D01*
X141122078Y-74758397D01*
X141122078Y-78770809D01*
G37*
G36*
X136533294Y-78555573D02*
G01*
X136460276Y-78601657D01*
X136364329Y-78657449D01*
X136240907Y-78726127D01*
X136206601Y-78745215D01*
X136140434Y-78782480D01*
X136053266Y-78831867D01*
X135950665Y-78890214D01*
X135838201Y-78954357D01*
X135721443Y-79021135D01*
X135634363Y-79070695D01*
X135513466Y-79138553D01*
X135397769Y-79202479D01*
X135293717Y-79258954D01*
X135207748Y-79304457D01*
X135146306Y-79335467D01*
X135015816Y-79402571D01*
X134777330Y-79552523D01*
X134565809Y-79725517D01*
X134379868Y-79922929D01*
X134218122Y-80146135D01*
X134079189Y-80396511D01*
X134078179Y-80398618D01*
X134058963Y-80441575D01*
X134027739Y-80514614D01*
X133985714Y-80614797D01*
X133934094Y-80739190D01*
X133874085Y-80884856D01*
X133806893Y-81048858D01*
X133733726Y-81228262D01*
X133655789Y-81420130D01*
X133574288Y-81621526D01*
X133490430Y-81829515D01*
X133475105Y-81867597D01*
X133377847Y-82109249D01*
X133292806Y-82320098D01*
X133218917Y-82502243D01*
X133155118Y-82657782D01*
X133100343Y-82788815D01*
X133053529Y-82897441D01*
X133013612Y-82985759D01*
X132979528Y-83055868D01*
X132950214Y-83109867D01*
X132924605Y-83149856D01*
X132901638Y-83177934D01*
X132880248Y-83196200D01*
X132859372Y-83206752D01*
X132837946Y-83211691D01*
X132814906Y-83213114D01*
X132789189Y-83213122D01*
X132786427Y-83213060D01*
X132742933Y-83206609D01*
X132672529Y-83190728D01*
X132581635Y-83167077D01*
X132476668Y-83137318D01*
X132364048Y-83103111D01*
X132348575Y-83098255D01*
X132237884Y-83063537D01*
X132135090Y-83031330D01*
X132046764Y-83003691D01*
X131979476Y-82982675D01*
X131939796Y-82970340D01*
X131866046Y-82947580D01*
X131844859Y-83159149D01*
X131835563Y-83244288D01*
X131823105Y-83335075D01*
X131807452Y-83422269D01*
X131787137Y-83511126D01*
X131760694Y-83606902D01*
X131726655Y-83714852D01*
X131683553Y-83840233D01*
X131629922Y-83988300D01*
X131564293Y-84164310D01*
X131547322Y-84209430D01*
X131499780Y-84335835D01*
X131456358Y-84451291D01*
X131418753Y-84551282D01*
X131388666Y-84631291D01*
X131367794Y-84686802D01*
X131357837Y-84713299D01*
X131346704Y-84739102D01*
X131336502Y-84753602D01*
X131336444Y-84753602D01*
X131306018Y-84747092D01*
X131261385Y-84731122D01*
X131214590Y-84710896D01*
X131177679Y-84691620D01*
X131162698Y-84678499D01*
X131164209Y-84672253D01*
X131175985Y-84636640D01*
X131198168Y-84573763D01*
X131229241Y-84487806D01*
X131267686Y-84382950D01*
X131311984Y-84263379D01*
X131360616Y-84133276D01*
X131377938Y-84086974D01*
X131428158Y-83950948D01*
X131475147Y-83821146D01*
X131516993Y-83703016D01*
X131551781Y-83602004D01*
X131577598Y-83523559D01*
X131592530Y-83473127D01*
X131599977Y-83440028D01*
X131612332Y-83371881D01*
X131625066Y-83289033D01*
X131637334Y-83198639D01*
X131648290Y-83107857D01*
X131657091Y-83023843D01*
X131662890Y-82953754D01*
X131664842Y-82904746D01*
X131662103Y-82883976D01*
X131661714Y-82883750D01*
X131640159Y-82876069D01*
X131590246Y-82859751D01*
X131517331Y-82836502D01*
X131426768Y-82808032D01*
X131323911Y-82776050D01*
X131227776Y-82745900D01*
X131128935Y-82713307D01*
X131056102Y-82686657D01*
X131004428Y-82663986D01*
X130969062Y-82643330D01*
X130945152Y-82622728D01*
X130937488Y-82614415D01*
X130916308Y-82589053D01*
X130900369Y-82562761D01*
X130890140Y-82532189D01*
X130886094Y-82493990D01*
X130888701Y-82444816D01*
X130898431Y-82381316D01*
X130915756Y-82300143D01*
X130941146Y-82197949D01*
X130975072Y-82071384D01*
X130988115Y-82024511D01*
X131204082Y-82024511D01*
X131205006Y-82024970D01*
X131229218Y-82033416D01*
X131283684Y-82051346D01*
X131365133Y-82077712D01*
X131470295Y-82111467D01*
X131595899Y-82151564D01*
X131738676Y-82196956D01*
X131895355Y-82246596D01*
X132062666Y-82299436D01*
X132093000Y-82309002D01*
X132259692Y-82361616D01*
X132415888Y-82410989D01*
X132558206Y-82456048D01*
X132683265Y-82495718D01*
X132787681Y-82528926D01*
X132868073Y-82554597D01*
X132921057Y-82571659D01*
X132943253Y-82579036D01*
X132965537Y-82578340D01*
X132987727Y-82546798D01*
X132992878Y-82533311D01*
X133023704Y-82454022D01*
X133064690Y-82350304D01*
X133114365Y-82225762D01*
X133171259Y-82084001D01*
X133233901Y-81928623D01*
X133300821Y-81763233D01*
X133370549Y-81591436D01*
X133441613Y-81416834D01*
X133512544Y-81243034D01*
X133581871Y-81073638D01*
X133648123Y-80912250D01*
X133709831Y-80762476D01*
X133765523Y-80627919D01*
X133813729Y-80512182D01*
X133852978Y-80418871D01*
X133881801Y-80351590D01*
X133898727Y-80313941D01*
X134002160Y-80120079D01*
X134160693Y-79882099D01*
X134342819Y-79669345D01*
X134550436Y-79479922D01*
X134785438Y-79311936D01*
X135049722Y-79163490D01*
X135116233Y-79129578D01*
X135218803Y-79075251D01*
X135332962Y-79012998D01*
X135453922Y-78945591D01*
X135576891Y-78875802D01*
X135697079Y-78806403D01*
X135809697Y-78740167D01*
X135909953Y-78679865D01*
X135993057Y-78628269D01*
X136054220Y-78588152D01*
X136088651Y-78562285D01*
X136151344Y-78504904D01*
X136151344Y-78060177D01*
X136151068Y-77972029D01*
X136149769Y-77850574D01*
X136147553Y-77741597D01*
X136144581Y-77650933D01*
X136141018Y-77584420D01*
X136137027Y-77547895D01*
X136125846Y-77513006D01*
X136084630Y-77441257D01*
X136026464Y-77375235D01*
X135961855Y-77328121D01*
X135961732Y-77328058D01*
X135933051Y-77317542D01*
X135873985Y-77299116D01*
X135788749Y-77273983D01*
X135681558Y-77243349D01*
X135556627Y-77208418D01*
X135418170Y-77170395D01*
X135270402Y-77130484D01*
X135255865Y-77126590D01*
X134977057Y-77051884D01*
X134730587Y-76985868D01*
X134514274Y-76928058D01*
X134325940Y-76877968D01*
X134163405Y-76835115D01*
X134024489Y-76799014D01*
X133907013Y-76769179D01*
X133808798Y-76745127D01*
X133727662Y-76726372D01*
X133661428Y-76712431D01*
X133607915Y-76702817D01*
X133564945Y-76697047D01*
X133530336Y-76694637D01*
X133501910Y-76695100D01*
X133477488Y-76697953D01*
X133454889Y-76702712D01*
X133431934Y-76708890D01*
X133406443Y-76716004D01*
X133374446Y-76726520D01*
X133294126Y-76761900D01*
X133196829Y-76813016D01*
X133089789Y-76875388D01*
X132980240Y-76944539D01*
X132875414Y-77015990D01*
X132782546Y-77085262D01*
X132708868Y-77147879D01*
X132631315Y-77224647D01*
X132558185Y-77307289D01*
X132491539Y-77395724D01*
X132430183Y-77492913D01*
X132372926Y-77601819D01*
X132318574Y-77725402D01*
X132265934Y-77866624D01*
X132213814Y-78028446D01*
X132161021Y-78213832D01*
X132106362Y-78425741D01*
X132048644Y-78667136D01*
X131986674Y-78940979D01*
X131968398Y-79023327D01*
X131906286Y-79300795D01*
X131848860Y-79552732D01*
X131794452Y-79785789D01*
X131741393Y-80006613D01*
X131688016Y-80221852D01*
X131632653Y-80438155D01*
X131573636Y-80662169D01*
X131509297Y-80900544D01*
X131437969Y-81159926D01*
X131357983Y-81446966D01*
X131331671Y-81541315D01*
X131295940Y-81670763D01*
X131264552Y-81786065D01*
X131238589Y-81883156D01*
X131219134Y-81957970D01*
X131207271Y-82006444D01*
X131204082Y-82024511D01*
X130988115Y-82024511D01*
X131018005Y-81917100D01*
X131070416Y-81731749D01*
X131128693Y-81525959D01*
X131203840Y-81259053D01*
X131271048Y-81017920D01*
X131331605Y-80797513D01*
X131386799Y-80592791D01*
X131437918Y-80398707D01*
X131486250Y-80210218D01*
X131533084Y-80022279D01*
X131579706Y-79829847D01*
X131627406Y-79627876D01*
X131677471Y-79411323D01*
X131731189Y-79175144D01*
X131789848Y-78914294D01*
X131845413Y-78669588D01*
X131899013Y-78442219D01*
X131948446Y-78243616D01*
X131994814Y-78070441D01*
X132039218Y-77919356D01*
X132082761Y-77787022D01*
X132126545Y-77670101D01*
X132171671Y-77565254D01*
X132219243Y-77469143D01*
X132270362Y-77378430D01*
X132326129Y-77289776D01*
X132370011Y-77225681D01*
X132431109Y-77145594D01*
X132497374Y-77070607D01*
X132572185Y-76998117D01*
X132658919Y-76925520D01*
X132760952Y-76850210D01*
X132881663Y-76769585D01*
X133024428Y-76681041D01*
X133192625Y-76581972D01*
X133389630Y-76469776D01*
X133438453Y-76442462D01*
X133545996Y-76384626D01*
X133640376Y-76339606D01*
X133726870Y-76307114D01*
X133810755Y-76286862D01*
X133897310Y-76278564D01*
X133991810Y-76281932D01*
X134099535Y-76296678D01*
X134225761Y-76322515D01*
X134375767Y-76359155D01*
X134554828Y-76406312D01*
X134634811Y-76427516D01*
X134785106Y-76466594D01*
X134956884Y-76510521D01*
X135141931Y-76557229D01*
X135332037Y-76604650D01*
X135518989Y-76650716D01*
X135694574Y-76693358D01*
X135709202Y-76696883D01*
X135862829Y-76734338D01*
X136008758Y-76770672D01*
X136142460Y-76804704D01*
X136259407Y-76835251D01*
X136355069Y-76861134D01*
X136424918Y-76881169D01*
X136464423Y-76894176D01*
X136571903Y-76951323D01*
X136668671Y-77033540D01*
X136739278Y-77130589D01*
X136743232Y-77138106D01*
X136754242Y-77162014D01*
X136762787Y-77188838D01*
X136769251Y-77223280D01*
X136774019Y-77270040D01*
X136777478Y-77333821D01*
X136780013Y-77419322D01*
X136782009Y-77531245D01*
X136783851Y-77674292D01*
X136785076Y-77803750D01*
X136785018Y-77942122D01*
X136782471Y-78053337D01*
X136776729Y-78142258D01*
X136767088Y-78213750D01*
X136752844Y-78272677D01*
X136733291Y-78323903D01*
X136707725Y-78372292D01*
X136675443Y-78422709D01*
X136660257Y-78443823D01*
X136628737Y-78479832D01*
X136600468Y-78504904D01*
X136587931Y-78516023D01*
X136533294Y-78555573D01*
G37*
G36*
X140333926Y-78770809D02*
G01*
X140172713Y-78770809D01*
X140172713Y-74758397D01*
X140333926Y-74758397D01*
X140333926Y-78770809D01*
G37*
G36*
X133974969Y-75797326D02*
G01*
X133898841Y-75798358D01*
X133890858Y-75798535D01*
X133819097Y-75803980D01*
X133751062Y-75814210D01*
X133734660Y-75817633D01*
X133693554Y-75826531D01*
X133674934Y-75831091D01*
X133674513Y-75828914D01*
X133673425Y-75800216D01*
X133672453Y-75741647D01*
X133671634Y-75657562D01*
X133671004Y-75552318D01*
X133670599Y-75430270D01*
X133670456Y-75295774D01*
X133670456Y-74758397D01*
X133974969Y-74758397D01*
X133974969Y-75797326D01*
G37*
G36*
X134601909Y-75925560D02*
G01*
X134543693Y-75913074D01*
X134540931Y-75912476D01*
X134497519Y-75901615D01*
X134472043Y-75892681D01*
X134470349Y-75887196D01*
X134467188Y-75851572D01*
X134464373Y-75786681D01*
X134462005Y-75696880D01*
X134460186Y-75586525D01*
X134459020Y-75459975D01*
X134458608Y-75321586D01*
X134458608Y-74758397D01*
X134601909Y-74758397D01*
X134601909Y-75925560D01*
G37*
G36*
X138184419Y-78770809D02*
G01*
X138041119Y-78770809D01*
X138041119Y-74758397D01*
X138184419Y-74758397D01*
X138184419Y-78770809D01*
G37*
G36*
X139617423Y-78770809D02*
G01*
X139474123Y-78770809D01*
X139474123Y-74758397D01*
X139617423Y-74758397D01*
X139617423Y-78770809D01*
G37*
G36*
X136034913Y-75519681D02*
G01*
X136034813Y-75607088D01*
X136034097Y-75764479D01*
X136032757Y-75907438D01*
X136030864Y-76032399D01*
X136028492Y-76135798D01*
X136025715Y-76214069D01*
X136022607Y-76263646D01*
X136019239Y-76280964D01*
X136019092Y-76280964D01*
X135991508Y-76277642D01*
X135947589Y-76269769D01*
X135891612Y-76258574D01*
X135891612Y-74758397D01*
X136034913Y-74758397D01*
X136034913Y-75519681D01*
G37*
G36*
X135354236Y-75439074D02*
G01*
X135354227Y-75464499D01*
X135353778Y-75614992D01*
X135352712Y-75752987D01*
X135351104Y-75874594D01*
X135349033Y-75975928D01*
X135346574Y-76053099D01*
X135343805Y-76102221D01*
X135340801Y-76119406D01*
X135329929Y-76117717D01*
X135291321Y-76109154D01*
X135237804Y-76095849D01*
X135148241Y-76072638D01*
X135143543Y-75415518D01*
X135138844Y-74758397D01*
X135354236Y-74758397D01*
X135354236Y-75439074D01*
G37*
G36*
X135310934Y-72793222D02*
G01*
X135405355Y-72793621D01*
X135480868Y-72794383D01*
X135539727Y-72795595D01*
X135584187Y-72797344D01*
X135616503Y-72799717D01*
X135638930Y-72802801D01*
X135653724Y-72806682D01*
X135663138Y-72811448D01*
X135667115Y-72814522D01*
X135685772Y-72843966D01*
X135687866Y-72881177D01*
X135672628Y-72917552D01*
X135670133Y-72920731D01*
X135660982Y-72928445D01*
X135646334Y-72934030D01*
X135622574Y-72937942D01*
X135586087Y-72940634D01*
X135533257Y-72942559D01*
X135460470Y-72944171D01*
X135265018Y-72947911D01*
X135264838Y-73456886D01*
X135264740Y-73523622D01*
X135264281Y-73627074D01*
X135263489Y-73721847D01*
X135262406Y-73805460D01*
X135261073Y-73875429D01*
X135259532Y-73929273D01*
X135257827Y-73964509D01*
X135255998Y-73978654D01*
X135246418Y-73988689D01*
X135223765Y-74004719D01*
X135204843Y-74011569D01*
X135168655Y-74008196D01*
X135138313Y-73985991D01*
X135137382Y-73984519D01*
X135133765Y-73971650D01*
X135130782Y-73946971D01*
X135128386Y-73908801D01*
X135126531Y-73855460D01*
X135125170Y-73785268D01*
X135124255Y-73696545D01*
X135123741Y-73587611D01*
X135123580Y-73456786D01*
X135123580Y-72946325D01*
X134840703Y-72946325D01*
X134840703Y-73961039D01*
X134811040Y-73990701D01*
X134808243Y-73993446D01*
X134780973Y-74012317D01*
X134755054Y-74012474D01*
X134746639Y-74010018D01*
X134734018Y-74005859D01*
X134723555Y-74000066D01*
X134715036Y-73990643D01*
X134708243Y-73975598D01*
X134702960Y-73952936D01*
X134698971Y-73920662D01*
X134696059Y-73876781D01*
X134694009Y-73819301D01*
X134692604Y-73746226D01*
X134691627Y-73655561D01*
X134690863Y-73545314D01*
X134690095Y-73413488D01*
X134689511Y-73312365D01*
X134688942Y-73200044D01*
X134688659Y-73107595D01*
X134688738Y-73032926D01*
X134689256Y-72973945D01*
X134690289Y-72928559D01*
X134691913Y-72894676D01*
X134694205Y-72870204D01*
X134697241Y-72853050D01*
X134701098Y-72841122D01*
X134705851Y-72832327D01*
X134711577Y-72824574D01*
X134736335Y-72793100D01*
X135195348Y-72793100D01*
X135310934Y-72793222D01*
G37*
G36*
X144614115Y-72805634D02*
G01*
X144720886Y-72835075D01*
X144820842Y-72883265D01*
X144911117Y-72948361D01*
X144988842Y-73028518D01*
X145051148Y-73121895D01*
X145095169Y-73226646D01*
X145112290Y-73306583D01*
X145118860Y-73402560D01*
X145113153Y-73498898D01*
X145095169Y-73585353D01*
X145068282Y-73655092D01*
X145011095Y-73752728D01*
X144936631Y-73839181D01*
X144848158Y-73911448D01*
X144748945Y-73966525D01*
X144642263Y-74001410D01*
X144569344Y-74012965D01*
X144452230Y-74012897D01*
X144337306Y-73989367D01*
X144224488Y-73942362D01*
X144186252Y-73919546D01*
X144137088Y-73883974D01*
X144089579Y-73843918D01*
X144048324Y-73803598D01*
X144017920Y-73767236D01*
X144002968Y-73739051D01*
X144001108Y-73724119D01*
X144010715Y-73689561D01*
X144035997Y-73663694D01*
X144071358Y-73653517D01*
X144083061Y-73654368D01*
X144106737Y-73662785D01*
X144134126Y-73683042D01*
X144170503Y-73718603D01*
X144224341Y-73766923D01*
X144313368Y-73821735D01*
X144347690Y-73837348D01*
X144380967Y-73849438D01*
X144414105Y-73856195D01*
X144455003Y-73859138D01*
X144511561Y-73859782D01*
X144557436Y-73859406D01*
X144601331Y-73857053D01*
X144635537Y-73851248D01*
X144667852Y-73840535D01*
X144706073Y-73823458D01*
X144715378Y-73818920D01*
X144802370Y-73762361D01*
X144875512Y-73687714D01*
X144932378Y-73597401D01*
X144946601Y-73567562D01*
X144959890Y-73533754D01*
X144967309Y-73501087D01*
X144970533Y-73461330D01*
X144971236Y-73406248D01*
X144971015Y-73371903D01*
X144968908Y-73325802D01*
X144963244Y-73290213D01*
X144952426Y-73256847D01*
X144934857Y-73217415D01*
X144929085Y-73205657D01*
X144871564Y-73117245D01*
X144797374Y-73044551D01*
X144708688Y-72989766D01*
X144706728Y-72988838D01*
X144669162Y-72972000D01*
X144637687Y-72961294D01*
X144604889Y-72955354D01*
X144563353Y-72952809D01*
X144505668Y-72952293D01*
X144450937Y-72952825D01*
X144408510Y-72955279D01*
X144375870Y-72960920D01*
X144345890Y-72971017D01*
X144311447Y-72986834D01*
X144278288Y-73005510D01*
X144227413Y-73040889D01*
X144184426Y-73077859D01*
X144153559Y-73107906D01*
X144120251Y-73136192D01*
X144094627Y-73150227D01*
X144072258Y-73152176D01*
X144048714Y-73144202D01*
X144026395Y-73128630D01*
X144011927Y-73098541D01*
X144017331Y-73060733D01*
X144041895Y-73016870D01*
X144084907Y-72968616D01*
X144145655Y-72917635D01*
X144231565Y-72863684D01*
X144326360Y-72825710D01*
X144434949Y-72802315D01*
X144503399Y-72796785D01*
X144614115Y-72805634D01*
G37*
G36*
X153558804Y-74018900D02*
G01*
X153181866Y-74018900D01*
X153133645Y-74018810D01*
X153043282Y-74018142D01*
X152961096Y-74016895D01*
X152890166Y-74015151D01*
X152833571Y-74012996D01*
X152794391Y-74010514D01*
X152775704Y-74007789D01*
X152757701Y-73997349D01*
X152738263Y-73969276D01*
X152734475Y-73935257D01*
X152746424Y-73902817D01*
X152774200Y-73879482D01*
X152780040Y-73877477D01*
X152813355Y-73872332D01*
X152869865Y-73868642D01*
X152949319Y-73866419D01*
X153051466Y-73865675D01*
X153298429Y-73865675D01*
X153298429Y-73633661D01*
X153453192Y-73633661D01*
X153453233Y-73704032D01*
X153454656Y-73767857D01*
X153454731Y-73769801D01*
X153455953Y-73790770D01*
X153457016Y-73789826D01*
X153457858Y-73768537D01*
X153458413Y-73728471D01*
X153458618Y-73671197D01*
X153458618Y-73668528D01*
X153458410Y-73611376D01*
X153457848Y-73570995D01*
X153456996Y-73549086D01*
X153455919Y-73547350D01*
X153454681Y-73567486D01*
X153454532Y-73571263D01*
X153453192Y-73633661D01*
X153298429Y-73633661D01*
X153298429Y-73476719D01*
X153135670Y-73476719D01*
X153101275Y-73476606D01*
X153035502Y-73475073D01*
X152988775Y-73470889D01*
X152957933Y-73462972D01*
X152939817Y-73450240D01*
X152931265Y-73431610D01*
X152929117Y-73406000D01*
X152929449Y-73394224D01*
X152933925Y-73371704D01*
X152946145Y-73355706D01*
X152969268Y-73345147D01*
X153006456Y-73338944D01*
X153060870Y-73336016D01*
X153135670Y-73335280D01*
X153298429Y-73335280D01*
X153298429Y-73103266D01*
X153453192Y-73103266D01*
X153453233Y-73173638D01*
X153454656Y-73237463D01*
X153454731Y-73239406D01*
X153455953Y-73260375D01*
X153457016Y-73259431D01*
X153457858Y-73238142D01*
X153458413Y-73198077D01*
X153458618Y-73140803D01*
X153458618Y-73138134D01*
X153458410Y-73080981D01*
X153457848Y-73040601D01*
X153456996Y-73018692D01*
X153455919Y-73016955D01*
X153454681Y-73037092D01*
X153454532Y-73040868D01*
X153453192Y-73103266D01*
X153298429Y-73103266D01*
X153298429Y-72947601D01*
X153039521Y-72944016D01*
X152966349Y-72942863D01*
X152897150Y-72941246D01*
X152845984Y-72939144D01*
X152809821Y-72936307D01*
X152785634Y-72932481D01*
X152770391Y-72927415D01*
X152761064Y-72920857D01*
X152756345Y-72915534D01*
X152742628Y-72881751D01*
X152746673Y-72844841D01*
X152767867Y-72814438D01*
X152767881Y-72814427D01*
X152776707Y-72808533D01*
X152788736Y-72803830D01*
X152806515Y-72800185D01*
X152832590Y-72797466D01*
X152869506Y-72795540D01*
X152919810Y-72794273D01*
X152986048Y-72793532D01*
X153070767Y-72793186D01*
X153176512Y-72793100D01*
X153558804Y-72793100D01*
X153587735Y-72822030D01*
X153616665Y-72850961D01*
X153616665Y-73961039D01*
X153558804Y-74018900D01*
G37*
G36*
X143353128Y-73174192D02*
G01*
X143418755Y-73195034D01*
X143472231Y-73231112D01*
X143512608Y-73278909D01*
X143538939Y-73334911D01*
X143550275Y-73395600D01*
X143545668Y-73457462D01*
X143524170Y-73516979D01*
X143484833Y-73570636D01*
X143426709Y-73614917D01*
X143419364Y-73618880D01*
X143354450Y-73639889D01*
X143285627Y-73640963D01*
X143218236Y-73623403D01*
X143157620Y-73588509D01*
X143109120Y-73537583D01*
X143094134Y-73514571D01*
X143080991Y-73485784D01*
X143075016Y-73452811D01*
X143073603Y-73406000D01*
X143074280Y-73370127D01*
X143078704Y-73334598D01*
X143089555Y-73305930D01*
X143109453Y-73274516D01*
X143118844Y-73261794D01*
X143171271Y-73210508D01*
X143233280Y-73180413D01*
X143306857Y-73170463D01*
X143353128Y-73174192D01*
G37*
G36*
X130951030Y-72806499D02*
G01*
X130975027Y-72829040D01*
X130976590Y-72835053D01*
X130979396Y-72863594D01*
X130981812Y-72912584D01*
X130983784Y-72979957D01*
X130985259Y-73063645D01*
X130986183Y-73161581D01*
X130986503Y-73271698D01*
X130986502Y-73287141D01*
X130986381Y-73396327D01*
X130985991Y-73484594D01*
X130985228Y-73554295D01*
X130983987Y-73607784D01*
X130982166Y-73647417D01*
X130979659Y-73675548D01*
X130976365Y-73694530D01*
X130972179Y-73706719D01*
X130966997Y-73714468D01*
X130937029Y-73732508D01*
X130900171Y-73733459D01*
X130866619Y-73716516D01*
X130862155Y-73711758D01*
X130857384Y-73703231D01*
X130853590Y-73689822D01*
X130850662Y-73669194D01*
X130848489Y-73639012D01*
X130846960Y-73596938D01*
X130845964Y-73540637D01*
X130845390Y-73467773D01*
X130845128Y-73376008D01*
X130845065Y-73263006D01*
X130845065Y-72829003D01*
X130873283Y-72810513D01*
X130880556Y-72806352D01*
X130916453Y-72798374D01*
X130951030Y-72806499D01*
G37*
G36*
X133080681Y-73554890D02*
G01*
X133047226Y-73653261D01*
X132993375Y-73744917D01*
X132917548Y-73833640D01*
X132892093Y-73857971D01*
X132803495Y-73924921D01*
X132706264Y-73975077D01*
X132606346Y-74005163D01*
X132590318Y-74007994D01*
X132474080Y-74015325D01*
X132358997Y-74000460D01*
X132248497Y-73964469D01*
X132146011Y-73908419D01*
X132054968Y-73833379D01*
X132046376Y-73824708D01*
X132016839Y-73793532D01*
X131996153Y-73769520D01*
X131988359Y-73757290D01*
X131987514Y-73756016D01*
X131971247Y-73751836D01*
X131938535Y-73748911D01*
X131894981Y-73747809D01*
X131801603Y-73747809D01*
X131788295Y-73788132D01*
X131780602Y-73808566D01*
X131739788Y-73877250D01*
X131681660Y-73935882D01*
X131610657Y-73980666D01*
X131531217Y-74007811D01*
X131520516Y-74009940D01*
X131478843Y-74015147D01*
X131439151Y-74012808D01*
X131389445Y-74002470D01*
X131369972Y-73997160D01*
X131287437Y-73961462D01*
X131220279Y-73909456D01*
X131170223Y-73843293D01*
X131138993Y-73765121D01*
X131128316Y-73677090D01*
X131133598Y-73612130D01*
X131151983Y-73551707D01*
X131185547Y-73498413D01*
X131236351Y-73449802D01*
X131306456Y-73403426D01*
X131397922Y-73356836D01*
X131404218Y-73353927D01*
X131468244Y-73324264D01*
X131514932Y-73302197D01*
X131548028Y-73285610D01*
X131571277Y-73272387D01*
X131588425Y-73260414D01*
X131603217Y-73247575D01*
X131619400Y-73231755D01*
X131644256Y-73203149D01*
X131655637Y-73175300D01*
X131658336Y-73136259D01*
X131648940Y-73077041D01*
X131617687Y-73020567D01*
X131564967Y-72973125D01*
X131538488Y-72959633D01*
X131483989Y-72947314D01*
X131426199Y-72948600D01*
X131375483Y-72963992D01*
X131366018Y-72969389D01*
X131322735Y-73007631D01*
X131289608Y-73058708D01*
X131272661Y-73113842D01*
X131272313Y-73116497D01*
X131258721Y-73166421D01*
X131234009Y-73195929D01*
X131197676Y-73205629D01*
X131177748Y-73203240D01*
X131147372Y-73184992D01*
X131130382Y-73151128D01*
X131127206Y-73104464D01*
X131138271Y-73047816D01*
X131164005Y-72984000D01*
X131176089Y-72961507D01*
X131228574Y-72891609D01*
X131293976Y-72841417D01*
X131372377Y-72810881D01*
X131463858Y-72799953D01*
X131478382Y-72799892D01*
X131527552Y-72802751D01*
X131568497Y-72812550D01*
X131613330Y-72831878D01*
X131639320Y-72845858D01*
X131709817Y-72899901D01*
X131761761Y-72967428D01*
X131793883Y-73046433D01*
X131804913Y-73134909D01*
X131804821Y-73145703D01*
X131799797Y-73203358D01*
X131785506Y-73253282D01*
X131759732Y-73297903D01*
X131720261Y-73339649D01*
X131664877Y-73380949D01*
X131591365Y-73424232D01*
X131497509Y-73471927D01*
X131460646Y-73489905D01*
X131400722Y-73520173D01*
X131357436Y-73544098D01*
X131327465Y-73563745D01*
X131307491Y-73581182D01*
X131294191Y-73598475D01*
X131273736Y-73646581D01*
X131272898Y-73697006D01*
X131291839Y-73754869D01*
X131292876Y-73757118D01*
X131330012Y-73810561D01*
X131382213Y-73846350D01*
X131447548Y-73863143D01*
X131451508Y-73863500D01*
X131513746Y-73860719D01*
X131565793Y-73839159D01*
X131613544Y-73796450D01*
X131651150Y-73753703D01*
X131546925Y-73747809D01*
X131509017Y-73745431D01*
X131471527Y-73741509D01*
X131447818Y-73735403D01*
X131432159Y-73725414D01*
X131418818Y-73709844D01*
X131408504Y-73694727D01*
X131401448Y-73672439D01*
X131408627Y-73647728D01*
X131424624Y-73625651D01*
X131452694Y-73606134D01*
X131469531Y-73602923D01*
X131507430Y-73599594D01*
X131560644Y-73596953D01*
X131624708Y-73595212D01*
X131695159Y-73594584D01*
X131756060Y-73594169D01*
X131816165Y-73592760D01*
X131862503Y-73590514D01*
X131891807Y-73587595D01*
X131900808Y-73584169D01*
X131900562Y-73583728D01*
X131895665Y-73566219D01*
X131889192Y-73532652D01*
X131882475Y-73489877D01*
X131880004Y-73470436D01*
X131878767Y-73404302D01*
X132025009Y-73404302D01*
X132035681Y-73502629D01*
X132068320Y-73598736D01*
X132078160Y-73618484D01*
X132134382Y-73701997D01*
X132206254Y-73772249D01*
X132289173Y-73824533D01*
X132294292Y-73826971D01*
X132332765Y-73843205D01*
X132369528Y-73853281D01*
X132413002Y-73858922D01*
X132471607Y-73861851D01*
X132505726Y-73862579D01*
X132562824Y-73860788D01*
X132609737Y-73853037D01*
X132655325Y-73837470D01*
X132708446Y-73812231D01*
X132731939Y-73799001D01*
X132804035Y-73742375D01*
X132865432Y-73669721D01*
X132913073Y-73586079D01*
X132943901Y-73496492D01*
X132954856Y-73406000D01*
X132952361Y-73365255D01*
X132932673Y-73277863D01*
X132896133Y-73191696D01*
X132846044Y-73113690D01*
X132785707Y-73050780D01*
X132779068Y-73045415D01*
X132694291Y-72992595D01*
X132600824Y-72959514D01*
X132502713Y-72946336D01*
X132404001Y-72953225D01*
X132308732Y-72980346D01*
X132220951Y-73027862D01*
X132183820Y-73056726D01*
X132115709Y-73129967D01*
X132065930Y-73214574D01*
X132035394Y-73307152D01*
X132025009Y-73404302D01*
X131878767Y-73404302D01*
X131877904Y-73358191D01*
X131897874Y-73249527D01*
X131940519Y-73140803D01*
X131967113Y-73092128D01*
X132035707Y-72998946D01*
X132117218Y-72922793D01*
X132209013Y-72864106D01*
X132308456Y-72823321D01*
X132412913Y-72800874D01*
X132519747Y-72797201D01*
X132626324Y-72812739D01*
X132730010Y-72847923D01*
X132828168Y-72903190D01*
X132918165Y-72978976D01*
X132944870Y-73007246D01*
X133013448Y-73096682D01*
X133060509Y-73190471D01*
X133087607Y-73292335D01*
X133096294Y-73406000D01*
X133095322Y-73446021D01*
X133080681Y-73554890D01*
G37*
G36*
X130962930Y-73771383D02*
G01*
X130971117Y-73780944D01*
X130980576Y-73801436D01*
X130985180Y-73832427D01*
X130986323Y-73880408D01*
X130986088Y-73907325D01*
X130983808Y-73948251D01*
X130977522Y-73974254D01*
X130965308Y-73991141D01*
X130945250Y-74004719D01*
X130926328Y-74011569D01*
X130890140Y-74008196D01*
X130859798Y-73985991D01*
X130852625Y-73967385D01*
X130847071Y-73928498D01*
X130845065Y-73875877D01*
X130845083Y-73865635D01*
X130846166Y-73821945D01*
X130849942Y-73794768D01*
X130857834Y-73778156D01*
X130871260Y-73766158D01*
X130895572Y-73752904D01*
X130930367Y-73750658D01*
X130962930Y-73771383D01*
G37*
G36*
X150356127Y-72807809D02*
G01*
X150465718Y-72840563D01*
X150569018Y-72894848D01*
X150663634Y-72970304D01*
X150675918Y-72982390D01*
X150751928Y-73074551D01*
X150806213Y-73175864D01*
X150838780Y-73286343D01*
X150849634Y-73406000D01*
X150849473Y-73420997D01*
X150835900Y-73539708D01*
X150800589Y-73649352D01*
X150743686Y-73749584D01*
X150665336Y-73840062D01*
X150661827Y-73843405D01*
X150572390Y-73914129D01*
X150473311Y-73967880D01*
X150370523Y-74001410D01*
X150358013Y-74004002D01*
X150239893Y-74015698D01*
X150124301Y-74004507D01*
X150013372Y-73971049D01*
X149909242Y-73915944D01*
X149814048Y-73839813D01*
X149792763Y-73818778D01*
X149755218Y-73775801D01*
X149735611Y-73740792D01*
X149732519Y-73710515D01*
X149744520Y-73681735D01*
X149748343Y-73676276D01*
X149775897Y-73654221D01*
X149809731Y-73653823D01*
X149850475Y-73675233D01*
X149898763Y-73718603D01*
X149952600Y-73766923D01*
X150041628Y-73821735D01*
X150044270Y-73822985D01*
X150082098Y-73839933D01*
X150113712Y-73850698D01*
X150146556Y-73856670D01*
X150188075Y-73859235D01*
X150245714Y-73859782D01*
X150298227Y-73859326D01*
X150341382Y-73856992D01*
X150374269Y-73851548D01*
X150403936Y-73841768D01*
X150437427Y-73826427D01*
X150456066Y-73816699D01*
X150538476Y-73758648D01*
X150608669Y-73684001D01*
X150661670Y-73597829D01*
X150673895Y-73571263D01*
X150687587Y-73535797D01*
X150695310Y-73502046D01*
X150698726Y-73461588D01*
X150699496Y-73406000D01*
X150699240Y-73369271D01*
X150697024Y-73324063D01*
X150691131Y-73288758D01*
X150679900Y-73254935D01*
X150661670Y-73214171D01*
X150649809Y-73190913D01*
X150592670Y-73108194D01*
X150520223Y-73038348D01*
X150437427Y-72986414D01*
X150423000Y-72979768D01*
X150378357Y-72963524D01*
X150329835Y-72953903D01*
X150267642Y-72948734D01*
X150249600Y-72948051D01*
X150146463Y-72954814D01*
X150054923Y-72981217D01*
X149972255Y-73028350D01*
X149895730Y-73097301D01*
X149894216Y-73098930D01*
X149861730Y-73130329D01*
X149835383Y-73146220D01*
X149808610Y-73150625D01*
X149774957Y-73143433D01*
X149748430Y-73118474D01*
X149738893Y-73078742D01*
X149746981Y-73052515D01*
X149772003Y-73016179D01*
X149810114Y-72975505D01*
X149857396Y-72934224D01*
X149909926Y-72896065D01*
X149963784Y-72864760D01*
X150013508Y-72842339D01*
X150127631Y-72808336D01*
X150242634Y-72796946D01*
X150356127Y-72807809D01*
G37*
G36*
X152551977Y-72797044D02*
G01*
X152581091Y-72815631D01*
X152608916Y-72838163D01*
X152608916Y-73973837D01*
X152581091Y-73996368D01*
X152576113Y-74000124D01*
X152565502Y-74005935D01*
X152550730Y-74010411D01*
X152529024Y-74013725D01*
X152497610Y-74016049D01*
X152453716Y-74017555D01*
X152394569Y-74018417D01*
X152317395Y-74018808D01*
X152219422Y-74018900D01*
X152208356Y-74018894D01*
X152121199Y-74018419D01*
X152041010Y-74017258D01*
X151971110Y-74015513D01*
X151914820Y-74013286D01*
X151875461Y-74010677D01*
X151856353Y-74007789D01*
X151838351Y-73997349D01*
X151818913Y-73969276D01*
X151815124Y-73935257D01*
X151827074Y-73902817D01*
X151854849Y-73879482D01*
X151855922Y-73879024D01*
X151883378Y-73873319D01*
X151932714Y-73869132D01*
X152002389Y-73866554D01*
X152090863Y-73865675D01*
X152296573Y-73865675D01*
X152296573Y-72850961D01*
X152325503Y-72822030D01*
X152327856Y-72819705D01*
X152357563Y-72797723D01*
X152384649Y-72796526D01*
X152416079Y-72815621D01*
X152443904Y-72838143D01*
X152450099Y-73354856D01*
X152456294Y-73871568D01*
X152458939Y-73356762D01*
X152461584Y-72841957D01*
X152492640Y-72817528D01*
X152496862Y-72814256D01*
X152526833Y-72796523D01*
X152551977Y-72797044D01*
G37*
G36*
X144725489Y-73519339D02*
G01*
X144681262Y-73576923D01*
X144617640Y-73622146D01*
X144575347Y-73636442D01*
X144515522Y-73641355D01*
X144453447Y-73633861D01*
X144398496Y-73614296D01*
X144366584Y-73593895D01*
X144318724Y-73544111D01*
X144288077Y-73483453D01*
X144275840Y-73416489D01*
X144276965Y-73406000D01*
X144423162Y-73406000D01*
X144427991Y-73433385D01*
X144452093Y-73471361D01*
X144458900Y-73477570D01*
X144497460Y-73496545D01*
X144538176Y-73495697D01*
X144574667Y-73476376D01*
X144600551Y-73439933D01*
X144605570Y-73423788D01*
X144604132Y-73382267D01*
X144584320Y-73346407D01*
X144549886Y-73321217D01*
X144504577Y-73311707D01*
X144484117Y-73316553D01*
X144454606Y-73338271D01*
X144432111Y-73370608D01*
X144423162Y-73406000D01*
X144276965Y-73406000D01*
X144283211Y-73347786D01*
X144311386Y-73281914D01*
X144329920Y-73255702D01*
X144380177Y-73208994D01*
X144438065Y-73180503D01*
X144499969Y-73169213D01*
X144562272Y-73174110D01*
X144621357Y-73194180D01*
X144673607Y-73228407D01*
X144715406Y-73275776D01*
X144743138Y-73335274D01*
X144753185Y-73405884D01*
X144751620Y-73423788D01*
X144749229Y-73451136D01*
X144725489Y-73519339D01*
G37*
G36*
X147415339Y-73172016D02*
G01*
X147483386Y-73190216D01*
X147540293Y-73225330D01*
X147584057Y-73273799D01*
X147612678Y-73332067D01*
X147624152Y-73396576D01*
X147616477Y-73463768D01*
X147587652Y-73530085D01*
X147554947Y-73572624D01*
X147500543Y-73614296D01*
X147486407Y-73621228D01*
X147417503Y-73641209D01*
X147349393Y-73640782D01*
X147285651Y-73622046D01*
X147229851Y-73587101D01*
X147185569Y-73538045D01*
X147156378Y-73476978D01*
X147145853Y-73406000D01*
X147146491Y-73387685D01*
X147162150Y-73316837D01*
X147196671Y-73256888D01*
X147247229Y-73210622D01*
X147310998Y-73180821D01*
X147385154Y-73170269D01*
X147415339Y-73172016D01*
G37*
G36*
X136074222Y-72801146D02*
G01*
X136129116Y-72808914D01*
X136179741Y-72826618D01*
X136239004Y-72860651D01*
X136298115Y-72914952D01*
X136341981Y-72979868D01*
X136369717Y-73051708D01*
X136380436Y-73126782D01*
X136373252Y-73201398D01*
X136347280Y-73271864D01*
X136301634Y-73334491D01*
X136292341Y-73343502D01*
X136259670Y-73369323D01*
X136214278Y-73397965D01*
X136153060Y-73431284D01*
X136072915Y-73471133D01*
X136029846Y-73492214D01*
X135961868Y-73527689D01*
X135912008Y-73558027D01*
X135877720Y-73585457D01*
X135856456Y-73612207D01*
X135845670Y-73640508D01*
X135842818Y-73672588D01*
X135844521Y-73691858D01*
X135860721Y-73744137D01*
X135889643Y-73793924D01*
X135925867Y-73830887D01*
X135974002Y-73854353D01*
X136031636Y-73864643D01*
X136088493Y-73860049D01*
X136136139Y-73840198D01*
X136175216Y-73808405D01*
X136212320Y-73757786D01*
X136232736Y-73694472D01*
X136242479Y-73653302D01*
X136257345Y-73623620D01*
X136279490Y-73610093D01*
X136312641Y-73608722D01*
X136349788Y-73618409D01*
X136373720Y-73642836D01*
X136381697Y-73683056D01*
X136374329Y-73740374D01*
X136366756Y-73768590D01*
X136330420Y-73848246D01*
X136276551Y-73916131D01*
X136208419Y-73968743D01*
X136129298Y-74002584D01*
X136082870Y-74011976D01*
X136000247Y-74011917D01*
X135921811Y-73991979D01*
X135850677Y-73954533D01*
X135789962Y-73901950D01*
X135742782Y-73836601D01*
X135712254Y-73760857D01*
X135701494Y-73677090D01*
X135707645Y-73607952D01*
X135727286Y-73547614D01*
X135762408Y-73494204D01*
X135815007Y-73445404D01*
X135887074Y-73398895D01*
X135980604Y-73352357D01*
X135983205Y-73351182D01*
X136076344Y-73306663D01*
X136146838Y-73267585D01*
X136194602Y-73234000D01*
X136219551Y-73205959D01*
X136222226Y-73199640D01*
X136228859Y-73169114D01*
X136231515Y-73131534D01*
X136224052Y-73081771D01*
X136197836Y-73029536D01*
X136156973Y-72987773D01*
X136105893Y-72958858D01*
X136049026Y-72945164D01*
X135990801Y-72949066D01*
X135935648Y-72972939D01*
X135935355Y-72973134D01*
X135902501Y-73004008D01*
X135872641Y-73046970D01*
X135850940Y-73093113D01*
X135842559Y-73133532D01*
X135837822Y-73158651D01*
X135817013Y-73187282D01*
X135785826Y-73203553D01*
X135751092Y-73204487D01*
X135719642Y-73187107D01*
X135715026Y-73181695D01*
X135702121Y-73146884D01*
X135701812Y-73098862D01*
X135713649Y-73042833D01*
X135737183Y-72984000D01*
X135749626Y-72960883D01*
X135802190Y-72891117D01*
X135867582Y-72841121D01*
X135945849Y-72810868D01*
X136037037Y-72800330D01*
X136074222Y-72801146D01*
G37*
G36*
X140263277Y-73495352D02*
G01*
X140304284Y-73589079D01*
X140340245Y-73671280D01*
X140368957Y-73736920D01*
X140459566Y-73944081D01*
X140391863Y-73974003D01*
X140324160Y-74003926D01*
X140209168Y-73740323D01*
X140094176Y-73476719D01*
X139723762Y-73476719D01*
X139611881Y-73733076D01*
X139574672Y-73817337D01*
X139543299Y-73885802D01*
X139518423Y-73936554D01*
X139498934Y-73971738D01*
X139483722Y-73993502D01*
X139471674Y-74003993D01*
X139450947Y-74013737D01*
X139436097Y-74018726D01*
X139418354Y-74011298D01*
X139395073Y-73991590D01*
X139375169Y-73967787D01*
X139366735Y-73948127D01*
X139366979Y-73946226D01*
X139373685Y-73925469D01*
X139388751Y-73886458D01*
X139411075Y-73831687D01*
X139439558Y-73763654D01*
X139473099Y-73684853D01*
X139510596Y-73597782D01*
X139550951Y-73504936D01*
X139593060Y-73408811D01*
X139630607Y-73323732D01*
X139794655Y-73323732D01*
X139801165Y-73329734D01*
X139819846Y-73333238D01*
X139854497Y-73334875D01*
X139908916Y-73335280D01*
X139911388Y-73335280D01*
X139964757Y-73334915D01*
X139998586Y-73333380D01*
X140016758Y-73329965D01*
X140023156Y-73323960D01*
X140021661Y-73314654D01*
X140019917Y-73310009D01*
X140005836Y-73274811D01*
X139987417Y-73231306D01*
X139966912Y-73184498D01*
X139946571Y-73139390D01*
X139928646Y-73100988D01*
X139915387Y-73074294D01*
X139909045Y-73064313D01*
X139909023Y-73064314D01*
X139902629Y-73074593D01*
X139889297Y-73101632D01*
X139871233Y-73140522D01*
X139850642Y-73186354D01*
X139829731Y-73234220D01*
X139810704Y-73279210D01*
X139795767Y-73316417D01*
X139794655Y-73323732D01*
X139630607Y-73323732D01*
X139635826Y-73311905D01*
X139678145Y-73216711D01*
X139718919Y-73125727D01*
X139757046Y-73041449D01*
X139791426Y-72966373D01*
X139820957Y-72902995D01*
X139844541Y-72853811D01*
X139861075Y-72821317D01*
X139869459Y-72808009D01*
X139884809Y-72799097D01*
X139920468Y-72795069D01*
X139953366Y-72813977D01*
X139957512Y-72819868D01*
X139971690Y-72846003D01*
X139993182Y-72889538D01*
X140020688Y-72947703D01*
X140052909Y-73017732D01*
X140088545Y-73096856D01*
X140126296Y-73182306D01*
X140132008Y-73195358D01*
X140174936Y-73293457D01*
X140188283Y-73323960D01*
X140219426Y-73395133D01*
X140263277Y-73495352D01*
G37*
G36*
X143901725Y-73546279D02*
G01*
X143865048Y-73654151D01*
X143809622Y-73752506D01*
X143737426Y-73838875D01*
X143650443Y-73910793D01*
X143550653Y-73965794D01*
X143440036Y-74001410D01*
X143397212Y-74009170D01*
X143279860Y-74014804D01*
X143165390Y-73998076D01*
X143056600Y-73959861D01*
X142956293Y-73901034D01*
X142867267Y-73822469D01*
X142852862Y-73806693D01*
X142784504Y-73716625D01*
X142737740Y-73622623D01*
X142710902Y-73520483D01*
X142702327Y-73406000D01*
X142849659Y-73406000D01*
X142849874Y-73439805D01*
X142851968Y-73486016D01*
X142857625Y-73521675D01*
X142868447Y-73555093D01*
X142886038Y-73594584D01*
X142891814Y-73606350D01*
X142949335Y-73694760D01*
X143023524Y-73767450D01*
X143112207Y-73822230D01*
X143115425Y-73823750D01*
X143158987Y-73842527D01*
X143197509Y-73853911D01*
X143240519Y-73859988D01*
X143297547Y-73862848D01*
X143370106Y-73861561D01*
X143446761Y-73848861D01*
X143515935Y-73821782D01*
X143585207Y-73778091D01*
X143592906Y-73772345D01*
X143649917Y-73721474D01*
X143696133Y-73661652D01*
X143737326Y-73585573D01*
X143742833Y-73573572D01*
X143756414Y-73538823D01*
X143764357Y-73504674D01*
X143768083Y-73463081D01*
X143769009Y-73406000D01*
X143768753Y-73369271D01*
X143766537Y-73324063D01*
X143760643Y-73288758D01*
X143749412Y-73254935D01*
X143731183Y-73214171D01*
X143721389Y-73194741D01*
X143664306Y-73110724D01*
X143591165Y-73039337D01*
X143506939Y-72985648D01*
X143477261Y-72971925D01*
X143447399Y-72961526D01*
X143415143Y-72955606D01*
X143373437Y-72952938D01*
X143315227Y-72952293D01*
X143312538Y-72952292D01*
X143255615Y-72952865D01*
X143214555Y-72955521D01*
X143181952Y-72961625D01*
X143150399Y-72972541D01*
X143112490Y-72989633D01*
X143103130Y-72994187D01*
X143014727Y-73051109D01*
X142942265Y-73125174D01*
X142887074Y-73215049D01*
X142875253Y-73240730D01*
X142861588Y-73276104D01*
X142853864Y-73309843D01*
X142850436Y-73350343D01*
X142849659Y-73406000D01*
X142702327Y-73406000D01*
X142702728Y-73379558D01*
X142714956Y-73269062D01*
X142745518Y-73169889D01*
X142796140Y-73077701D01*
X142868549Y-72988159D01*
X142912075Y-72945973D01*
X143005022Y-72878864D01*
X143106411Y-72831681D01*
X143213404Y-72804482D01*
X143323164Y-72797326D01*
X143432856Y-72810271D01*
X143539641Y-72843377D01*
X143640684Y-72896702D01*
X143733147Y-72970304D01*
X143744334Y-72981295D01*
X143820128Y-73073239D01*
X143874492Y-73174957D01*
X143907244Y-73286021D01*
X143918202Y-73406000D01*
X143917672Y-73431354D01*
X143901725Y-73546279D01*
G37*
G36*
X130687316Y-73747879D02*
G01*
X130708790Y-73756985D01*
X130733628Y-73776740D01*
X130734515Y-73777632D01*
X130751973Y-73800368D01*
X130760382Y-73828209D01*
X130762559Y-73870265D01*
X130762320Y-73886915D01*
X130755644Y-73946070D01*
X130739404Y-73985176D01*
X130713077Y-74005671D01*
X130696227Y-74010556D01*
X130659033Y-74008489D01*
X130631788Y-73985632D01*
X130615039Y-73942646D01*
X130609334Y-73880196D01*
X130609646Y-73855729D01*
X130612975Y-73820580D01*
X130621770Y-73796913D01*
X130638264Y-73776740D01*
X130640315Y-73774734D01*
X130665299Y-73755652D01*
X130685946Y-73747809D01*
X130687316Y-73747879D01*
G37*
G36*
X149298976Y-72795648D02*
G01*
X149329350Y-72795874D01*
X149439418Y-72796764D01*
X149528742Y-72797696D01*
X149599596Y-72798797D01*
X149654252Y-72800193D01*
X149694983Y-72802011D01*
X149724063Y-72804379D01*
X149743763Y-72807422D01*
X149756357Y-72811267D01*
X149764118Y-72816042D01*
X149769318Y-72821872D01*
X149782190Y-72847102D01*
X149782706Y-72884778D01*
X149761265Y-72917978D01*
X149750083Y-72926169D01*
X149733933Y-72932592D01*
X149709610Y-72937130D01*
X149673265Y-72940258D01*
X149621047Y-72942452D01*
X149549107Y-72944189D01*
X149361724Y-72947947D01*
X149361724Y-73448839D01*
X149361672Y-73510639D01*
X149361110Y-73645301D01*
X149359935Y-73757131D01*
X149358149Y-73845982D01*
X149355757Y-73911707D01*
X149352762Y-73954160D01*
X149349166Y-73973193D01*
X149337213Y-73988459D01*
X149310860Y-74006245D01*
X149286009Y-74010933D01*
X149250104Y-74000557D01*
X149223405Y-73970524D01*
X149220757Y-73962411D01*
X149217247Y-73939163D01*
X149214283Y-73901357D01*
X149211815Y-73847488D01*
X149209793Y-73776056D01*
X149208169Y-73685559D01*
X149206891Y-73574494D01*
X149205912Y-73441359D01*
X149202978Y-72940431D01*
X149196898Y-73457773D01*
X149190819Y-73975115D01*
X149160707Y-73997590D01*
X149146742Y-74005860D01*
X149110547Y-74011344D01*
X149077675Y-73997119D01*
X149055062Y-73965305D01*
X149055014Y-73965174D01*
X149052208Y-73945567D01*
X149049719Y-73904331D01*
X149047588Y-73843376D01*
X149045857Y-73764614D01*
X149044568Y-73669956D01*
X149043764Y-73561311D01*
X149043487Y-73440592D01*
X149043487Y-72946325D01*
X148952141Y-72946151D01*
X148943579Y-72946098D01*
X148880391Y-72942260D01*
X148836180Y-72931382D01*
X148807401Y-72912080D01*
X148790512Y-72882968D01*
X148785076Y-72861390D01*
X148790525Y-72842583D01*
X148812062Y-72820941D01*
X148845355Y-72792305D01*
X149298976Y-72795648D01*
G37*
G36*
X133900831Y-73522308D02*
G01*
X133857694Y-73578356D01*
X133797594Y-73622796D01*
X133781565Y-73629908D01*
X133740627Y-73638062D01*
X133683183Y-73638606D01*
X133665335Y-73637646D01*
X133621723Y-73632210D01*
X133588186Y-73620714D01*
X133554580Y-73600121D01*
X133522453Y-73572949D01*
X133481488Y-73516970D01*
X133459028Y-73453414D01*
X133455981Y-73401954D01*
X133601354Y-73401954D01*
X133608671Y-73442467D01*
X133634171Y-73475864D01*
X133671313Y-73496096D01*
X133711404Y-73496136D01*
X133751755Y-73472691D01*
X133775309Y-73444587D01*
X133783843Y-73406000D01*
X133777405Y-73371767D01*
X133751755Y-73339308D01*
X133715227Y-73317088D01*
X133675168Y-73314886D01*
X133634171Y-73336136D01*
X133612220Y-73362210D01*
X133601354Y-73401954D01*
X133455981Y-73401954D01*
X133455079Y-73386714D01*
X133469641Y-73321302D01*
X133502719Y-73261608D01*
X133554315Y-73212065D01*
X133613157Y-73182629D01*
X133681793Y-73170291D01*
X133751464Y-73176609D01*
X133816366Y-73201017D01*
X133870697Y-73242949D01*
X133888028Y-73263755D01*
X133920605Y-73325375D01*
X133933073Y-73391731D01*
X133931614Y-73406000D01*
X133926220Y-73458738D01*
X133900831Y-73522308D01*
G37*
G36*
X137306760Y-73486272D02*
G01*
X137357185Y-73603048D01*
X137398742Y-73700526D01*
X137431933Y-73779956D01*
X137457261Y-73842590D01*
X137475228Y-73889676D01*
X137486337Y-73922466D01*
X137491091Y-73942209D01*
X137489992Y-73950156D01*
X137470465Y-73960837D01*
X137437646Y-73974664D01*
X137404464Y-73985464D01*
X137378181Y-73990969D01*
X137366059Y-73988906D01*
X137364020Y-73984089D01*
X137353682Y-73960223D01*
X137336020Y-73919691D01*
X137312430Y-73865696D01*
X137284313Y-73801441D01*
X137253066Y-73730130D01*
X137144543Y-73482612D01*
X136769048Y-73482612D01*
X136661167Y-73729179D01*
X136656703Y-73739357D01*
X136620720Y-73819405D01*
X136588404Y-73887809D01*
X136561040Y-73942012D01*
X136539912Y-73979460D01*
X136526303Y-73997596D01*
X136521356Y-74001285D01*
X136487043Y-74013208D01*
X136454291Y-74006068D01*
X136429757Y-73983023D01*
X136420099Y-73947230D01*
X136424550Y-73932087D01*
X136437378Y-73897828D01*
X136457496Y-73847062D01*
X136483815Y-73782347D01*
X136515248Y-73706242D01*
X136550706Y-73621304D01*
X136589103Y-73530089D01*
X136629349Y-73435157D01*
X136670356Y-73339065D01*
X136677505Y-73322425D01*
X136844415Y-73322425D01*
X136844970Y-73324080D01*
X136861593Y-73330250D01*
X136900790Y-73334009D01*
X136961833Y-73335280D01*
X137079252Y-73335280D01*
X137037121Y-73238041D01*
X137030309Y-73222317D01*
X137009101Y-73173324D01*
X136990475Y-73130249D01*
X136977829Y-73100945D01*
X136974429Y-73093608D01*
X136961460Y-73074114D01*
X136951774Y-73071479D01*
X136947388Y-73078488D01*
X136934565Y-73104185D01*
X136917085Y-73142345D01*
X136897367Y-73187320D01*
X136877824Y-73233462D01*
X136860874Y-73275125D01*
X136848932Y-73306662D01*
X136844415Y-73322425D01*
X136677505Y-73322425D01*
X136711038Y-73244370D01*
X136750305Y-73153630D01*
X136787070Y-73069404D01*
X136820246Y-72994247D01*
X136848743Y-72930719D01*
X136871474Y-72881376D01*
X136887351Y-72848777D01*
X136906911Y-72822611D01*
X136933721Y-72802328D01*
X136940662Y-72799352D01*
X136953743Y-72795633D01*
X136966382Y-72796256D01*
X136979468Y-72802793D01*
X136993887Y-72816820D01*
X137010527Y-72839909D01*
X137030277Y-72873633D01*
X137054023Y-72919568D01*
X137082654Y-72979286D01*
X137117057Y-73054360D01*
X137158119Y-73146365D01*
X137206728Y-73256874D01*
X137240978Y-73335280D01*
X137263772Y-73387461D01*
X137306760Y-73486272D01*
G37*
G36*
X141205198Y-73272202D02*
G01*
X141205255Y-73405306D01*
X141205045Y-73517444D01*
X141204506Y-73623392D01*
X141203675Y-73719917D01*
X141202589Y-73804661D01*
X141201283Y-73875265D01*
X141199795Y-73929370D01*
X141198160Y-73964620D01*
X141196415Y-73978654D01*
X141186835Y-73988689D01*
X141164183Y-74004719D01*
X141146186Y-74011164D01*
X141117037Y-74011362D01*
X141103465Y-74006784D01*
X141089730Y-73998233D01*
X141079601Y-73983916D01*
X141072533Y-73960866D01*
X141067983Y-73926115D01*
X141065406Y-73876696D01*
X141064259Y-73809642D01*
X141063997Y-73721984D01*
X141063660Y-73651349D01*
X141062267Y-73576894D01*
X141059853Y-73522106D01*
X141056480Y-73488282D01*
X141052211Y-73476719D01*
X141048959Y-73483016D01*
X141045323Y-73511068D01*
X141042645Y-73560367D01*
X141040990Y-73629581D01*
X141040424Y-73717379D01*
X141040409Y-73732773D01*
X141039916Y-73805599D01*
X141038808Y-73870373D01*
X141037199Y-73923216D01*
X141035200Y-73960247D01*
X141032923Y-73977586D01*
X141027035Y-73988260D01*
X141001764Y-74006244D01*
X140968186Y-74010720D01*
X140934275Y-74001608D01*
X140908006Y-73978829D01*
X140907302Y-73976971D01*
X140904758Y-73956185D01*
X140902545Y-73916511D01*
X140900791Y-73861662D01*
X140899622Y-73795350D01*
X140899166Y-73721290D01*
X140898986Y-73476719D01*
X140731956Y-73476719D01*
X140714787Y-73476700D01*
X140650839Y-73476055D01*
X140605651Y-73474190D01*
X140575296Y-73470699D01*
X140555845Y-73465175D01*
X140543371Y-73457212D01*
X140525331Y-73427245D01*
X140524381Y-73390386D01*
X140541323Y-73356835D01*
X140547829Y-73350778D01*
X140560982Y-73343986D01*
X140581788Y-73339495D01*
X140614225Y-73336851D01*
X140662271Y-73335597D01*
X140729908Y-73335280D01*
X140898986Y-73335280D01*
X140898986Y-73134909D01*
X141040424Y-73134909D01*
X141040468Y-73154803D01*
X141041527Y-73225831D01*
X141043914Y-73278855D01*
X141047514Y-73312026D01*
X141052211Y-73323494D01*
X141053454Y-73322795D01*
X141057893Y-73305850D01*
X141061207Y-73267654D01*
X141063281Y-73210057D01*
X141063997Y-73134909D01*
X141063954Y-73115016D01*
X141062895Y-73043988D01*
X141060507Y-72990964D01*
X141056908Y-72957793D01*
X141052211Y-72946325D01*
X141050967Y-72947024D01*
X141046528Y-72963969D01*
X141043214Y-73002164D01*
X141041141Y-73059761D01*
X141040424Y-73134909D01*
X140898986Y-73134909D01*
X140898986Y-72946325D01*
X140652023Y-72946325D01*
X140615974Y-72946244D01*
X140521255Y-72945013D01*
X140449312Y-72942306D01*
X140400395Y-72938137D01*
X140374757Y-72932517D01*
X140373581Y-72931970D01*
X140345511Y-72908107D01*
X140334572Y-72876154D01*
X140339768Y-72842835D01*
X140360099Y-72814877D01*
X140394569Y-72799004D01*
X140400944Y-72798250D01*
X140431257Y-72796740D01*
X140480532Y-72795608D01*
X140545543Y-72794881D01*
X140623061Y-72794589D01*
X140709859Y-72794760D01*
X140802709Y-72795422D01*
X140820168Y-72795592D01*
X140919987Y-72796652D01*
X140999164Y-72797771D01*
X141060240Y-72799123D01*
X141105752Y-72800882D01*
X141138239Y-72803222D01*
X141160241Y-72806317D01*
X141174296Y-72810341D01*
X141182942Y-72815468D01*
X141188718Y-72821872D01*
X141191412Y-72826978D01*
X141194936Y-72840203D01*
X141197837Y-72861734D01*
X141200169Y-72893478D01*
X141201988Y-72937345D01*
X141203345Y-72995243D01*
X141204297Y-73069079D01*
X141204728Y-73134909D01*
X141204897Y-73160763D01*
X141205198Y-73272202D01*
G37*
G36*
X148779905Y-73278442D02*
G01*
X148780842Y-73372903D01*
X148781773Y-73488506D01*
X148781897Y-73505360D01*
X148782442Y-73606620D01*
X148782610Y-73700801D01*
X148782421Y-73785155D01*
X148781894Y-73856932D01*
X148781048Y-73913384D01*
X148779902Y-73951762D01*
X148778474Y-73969317D01*
X148769095Y-73987686D01*
X148745524Y-74006767D01*
X148725683Y-74011684D01*
X148695784Y-74010960D01*
X148690540Y-74009498D01*
X148675537Y-74003410D01*
X148664045Y-73993325D01*
X148655597Y-73976446D01*
X148649729Y-73949978D01*
X148645975Y-73911123D01*
X148643870Y-73857086D01*
X148642948Y-73785069D01*
X148642744Y-73692278D01*
X148642744Y-73417307D01*
X148598545Y-73439681D01*
X148592060Y-73442868D01*
X148553251Y-73459215D01*
X148518986Y-73470023D01*
X148514941Y-73471098D01*
X148502347Y-73477123D01*
X148488354Y-73489071D01*
X148471215Y-73509350D01*
X148449185Y-73540367D01*
X148420519Y-73584529D01*
X148383470Y-73644241D01*
X148336294Y-73721911D01*
X148332987Y-73727385D01*
X148281030Y-73812822D01*
X148239210Y-73880068D01*
X148205950Y-73931220D01*
X148179674Y-73968373D01*
X148158806Y-73993622D01*
X148141769Y-74009062D01*
X148126988Y-74016790D01*
X148112886Y-74018900D01*
X148105595Y-74018241D01*
X148075466Y-74003710D01*
X148051511Y-73976534D01*
X148041935Y-73945234D01*
X148043535Y-73938772D01*
X148055256Y-73912562D01*
X148076858Y-73871254D01*
X148106563Y-73818077D01*
X148142591Y-73756258D01*
X148183163Y-73689025D01*
X148324086Y-73459335D01*
X148283273Y-73438396D01*
X148242436Y-73413236D01*
X148182319Y-73356173D01*
X148137970Y-73285992D01*
X148111110Y-73206832D01*
X148106185Y-73152739D01*
X148253397Y-73152739D01*
X148266355Y-73210847D01*
X148296063Y-73262190D01*
X148342288Y-73301629D01*
X148400127Y-73325619D01*
X148462666Y-73329278D01*
X148524189Y-73309428D01*
X148526695Y-73308114D01*
X148579284Y-73271670D01*
X148613010Y-73225650D01*
X148632133Y-73164326D01*
X148634597Y-73146363D01*
X148629259Y-73083048D01*
X148603276Y-73026016D01*
X148558778Y-72980598D01*
X148541033Y-72970139D01*
X148488759Y-72953934D01*
X148429919Y-72950280D01*
X148373353Y-72959176D01*
X148327903Y-72980623D01*
X148317313Y-72989208D01*
X148278645Y-73036782D01*
X148257417Y-73093005D01*
X148253397Y-73152739D01*
X148106185Y-73152739D01*
X148103462Y-73122832D01*
X148116746Y-73038129D01*
X148135125Y-72991848D01*
X148178870Y-72925293D01*
X148236872Y-72868403D01*
X148303534Y-72827490D01*
X148312248Y-72823749D01*
X148395684Y-72801200D01*
X148479935Y-72800307D01*
X148561393Y-72819783D01*
X148636449Y-72858344D01*
X148701495Y-72914704D01*
X148752925Y-72987577D01*
X148755401Y-72992251D01*
X148761424Y-73005063D01*
X148766321Y-73019574D01*
X148770233Y-73038216D01*
X148773299Y-73063419D01*
X148775659Y-73097613D01*
X148777453Y-73143228D01*
X148777525Y-73146363D01*
X148778822Y-73202694D01*
X148779905Y-73278442D01*
G37*
G36*
X134593072Y-72806499D02*
G01*
X134617069Y-72829040D01*
X134618526Y-72836241D01*
X134620677Y-72865143D01*
X134622578Y-72912915D01*
X134624223Y-72976729D01*
X134625605Y-73053754D01*
X134626719Y-73141161D01*
X134627558Y-73236121D01*
X134628117Y-73335804D01*
X134628389Y-73437381D01*
X134628369Y-73538023D01*
X134628049Y-73634900D01*
X134627426Y-73725183D01*
X134626491Y-73806042D01*
X134625240Y-73874648D01*
X134623666Y-73928172D01*
X134621762Y-73963784D01*
X134619524Y-73978654D01*
X134609944Y-73988689D01*
X134587292Y-74004719D01*
X134575844Y-74009564D01*
X134538533Y-74010256D01*
X134501840Y-73992441D01*
X134498476Y-73985171D01*
X134495482Y-73967029D01*
X134493018Y-73936555D01*
X134491044Y-73892144D01*
X134489519Y-73832190D01*
X134488403Y-73755087D01*
X134487656Y-73659230D01*
X134487237Y-73543012D01*
X134487106Y-73404828D01*
X134487106Y-72829003D01*
X134515325Y-72810513D01*
X134522598Y-72806352D01*
X134558495Y-72798374D01*
X134593072Y-72806499D01*
G37*
G36*
X130728840Y-72815620D02*
G01*
X130756665Y-72838140D01*
X130760108Y-73242882D01*
X130760626Y-73316714D01*
X130760949Y-73408263D01*
X130760884Y-73490866D01*
X130760450Y-73561598D01*
X130759669Y-73617535D01*
X130758560Y-73655750D01*
X130757144Y-73673319D01*
X130750619Y-73690381D01*
X130732233Y-73717519D01*
X130711260Y-73730907D01*
X130674608Y-73734412D01*
X130638106Y-73719303D01*
X130632682Y-73714584D01*
X130627687Y-73706954D01*
X130623688Y-73694571D01*
X130620546Y-73675082D01*
X130618120Y-73646136D01*
X130616272Y-73605379D01*
X130614861Y-73550459D01*
X130613747Y-73479024D01*
X130612792Y-73388720D01*
X130611855Y-73277197D01*
X130608484Y-72851811D01*
X130637839Y-72822455D01*
X130640946Y-72819396D01*
X130670578Y-72797657D01*
X130697556Y-72796572D01*
X130728840Y-72815620D01*
G37*
G36*
X142353918Y-72806469D02*
G01*
X142434689Y-72832524D01*
X142504773Y-72875798D01*
X142561653Y-72933605D01*
X142602813Y-73003255D01*
X142625737Y-73082062D01*
X142627909Y-73167337D01*
X142626991Y-73175378D01*
X142613081Y-73235992D01*
X142586201Y-73289832D01*
X142544276Y-73338907D01*
X142485230Y-73385226D01*
X142406989Y-73430798D01*
X142307478Y-73477632D01*
X142290954Y-73484986D01*
X142229895Y-73515294D01*
X142178231Y-73545762D01*
X142142466Y-73572643D01*
X142126214Y-73588225D01*
X142105946Y-73612933D01*
X142097200Y-73638235D01*
X142095320Y-73674159D01*
X142101512Y-73724133D01*
X142127078Y-73781510D01*
X142169562Y-73826247D01*
X142225839Y-73855313D01*
X142292783Y-73865675D01*
X142320411Y-73863333D01*
X142377629Y-73842837D01*
X142426417Y-73804218D01*
X142462895Y-73751113D01*
X142483183Y-73687160D01*
X142488335Y-73660667D01*
X142501457Y-73627504D01*
X142522713Y-73610905D01*
X142556166Y-73606371D01*
X142576999Y-73608814D01*
X142608183Y-73627044D01*
X142625639Y-73660815D01*
X142628937Y-73707426D01*
X142617649Y-73764174D01*
X142591347Y-73828357D01*
X142574245Y-73858085D01*
X142518148Y-73924147D01*
X142446742Y-73974649D01*
X142363847Y-74006594D01*
X142345516Y-74010388D01*
X142268699Y-74012728D01*
X142189511Y-73996374D01*
X142114476Y-73963226D01*
X142050122Y-73915186D01*
X142032108Y-73896833D01*
X141988610Y-73838129D01*
X141962438Y-73772379D01*
X141950526Y-73692733D01*
X141949107Y-73666052D01*
X141949790Y-73623309D01*
X141956535Y-73589503D01*
X141970758Y-73554990D01*
X142001542Y-73505378D01*
X142050799Y-73454943D01*
X142118123Y-73408170D01*
X142206260Y-73362819D01*
X142291227Y-73323419D01*
X142356903Y-73290887D01*
X142405539Y-73263172D01*
X142439507Y-73238167D01*
X142461177Y-73213768D01*
X142472919Y-73187870D01*
X142477104Y-73158366D01*
X142476102Y-73123151D01*
X142475310Y-73114040D01*
X142465327Y-73062851D01*
X142448338Y-73026146D01*
X142435984Y-73011254D01*
X142385792Y-72972746D01*
X142325571Y-72951272D01*
X142261539Y-72948351D01*
X142199913Y-72965499D01*
X142175763Y-72979883D01*
X142145204Y-73005408D01*
X142122128Y-73032305D01*
X142113000Y-73053993D01*
X142113386Y-73054947D01*
X142127888Y-73059639D01*
X142159146Y-73062942D01*
X142201399Y-73064190D01*
X142202290Y-73064191D01*
X142264232Y-73068379D01*
X142305975Y-73081496D01*
X142329538Y-73104656D01*
X142336944Y-73138976D01*
X142335383Y-73155853D01*
X142328914Y-73170886D01*
X142315459Y-73182905D01*
X142292945Y-73192203D01*
X142259300Y-73199070D01*
X142212453Y-73203797D01*
X142150330Y-73206674D01*
X142070860Y-73207993D01*
X141971971Y-73208045D01*
X141851591Y-73207120D01*
X141782313Y-73205576D01*
X141731352Y-73201651D01*
X141697439Y-73194145D01*
X141677287Y-73181838D01*
X141667607Y-73163510D01*
X141665111Y-73137942D01*
X141665269Y-73130200D01*
X141670564Y-73102312D01*
X141685846Y-73083313D01*
X141714473Y-73071658D01*
X141759803Y-73065799D01*
X141825192Y-73064190D01*
X141946260Y-73064190D01*
X141974949Y-73001526D01*
X141994076Y-72964871D01*
X142048190Y-72894724D01*
X142115888Y-72842951D01*
X142195136Y-72810877D01*
X142283904Y-72799830D01*
X142353918Y-72806469D01*
G37*
G36*
X133770836Y-72802438D02*
G01*
X133793343Y-72806138D01*
X133906965Y-72838321D01*
X134010866Y-72890333D01*
X134102653Y-72960057D01*
X134179933Y-73045375D01*
X134240313Y-73144168D01*
X134281399Y-73254318D01*
X134281938Y-73256375D01*
X134293736Y-73326481D01*
X134297579Y-73407401D01*
X134293466Y-73488135D01*
X134281399Y-73557681D01*
X134281086Y-73558850D01*
X134240941Y-73665000D01*
X134181379Y-73762315D01*
X134105422Y-73847928D01*
X134016089Y-73918971D01*
X133916401Y-73972574D01*
X133809380Y-74005871D01*
X133802633Y-74007153D01*
X133731248Y-74013709D01*
X133649486Y-74011452D01*
X133567397Y-74001101D01*
X133495028Y-73983375D01*
X133462882Y-73971246D01*
X133393177Y-73936537D01*
X133324458Y-73892693D01*
X133264025Y-73844641D01*
X133219180Y-73797304D01*
X133196299Y-73764946D01*
X133181852Y-73733636D01*
X133182524Y-73707299D01*
X133197148Y-73679713D01*
X133204611Y-73670308D01*
X133230873Y-73653597D01*
X133262985Y-73656352D01*
X133302650Y-73679041D01*
X133351571Y-73722133D01*
X133353362Y-73723890D01*
X133397746Y-73762645D01*
X133447223Y-73798951D01*
X133491453Y-73825190D01*
X133523936Y-73840193D01*
X133553950Y-73850594D01*
X133586192Y-73856470D01*
X133627773Y-73859087D01*
X133685805Y-73859706D01*
X133694815Y-73859706D01*
X133749489Y-73859053D01*
X133788867Y-73856267D01*
X133820231Y-73849963D01*
X133850864Y-73838757D01*
X133888047Y-73821267D01*
X133957771Y-73778273D01*
X134026710Y-73717465D01*
X134083618Y-73647503D01*
X134122806Y-73574366D01*
X134122856Y-73574238D01*
X134143798Y-73494772D01*
X134150744Y-73405814D01*
X134143698Y-73316822D01*
X134122663Y-73237251D01*
X134117101Y-73224003D01*
X134076011Y-73153738D01*
X134019222Y-73086384D01*
X133952925Y-73028428D01*
X133883312Y-72986360D01*
X133851879Y-72972575D01*
X133819924Y-72961764D01*
X133786463Y-72955614D01*
X133744146Y-72952855D01*
X133685621Y-72952218D01*
X133633897Y-72952659D01*
X133590467Y-72954964D01*
X133557458Y-72960354D01*
X133527842Y-72970045D01*
X133494594Y-72985251D01*
X133487914Y-72988674D01*
X133444278Y-73015376D01*
X133395162Y-73050849D01*
X133349974Y-73088383D01*
X133334487Y-73102156D01*
X133299887Y-73130990D01*
X133272708Y-73150995D01*
X133257800Y-73158482D01*
X133255405Y-73158425D01*
X133223399Y-73146449D01*
X133199791Y-73118378D01*
X133190587Y-73081125D01*
X133192966Y-73058932D01*
X133202965Y-73036165D01*
X133224064Y-73009134D01*
X133259732Y-72972383D01*
X133335280Y-72909474D01*
X133435420Y-72852288D01*
X133544013Y-72814515D01*
X133657129Y-72797463D01*
X133770836Y-72802438D01*
G37*
G36*
X132527895Y-73172629D02*
G01*
X132597859Y-73195049D01*
X132647278Y-73227205D01*
X132690870Y-73277369D01*
X132717642Y-73336354D01*
X132727585Y-73399961D01*
X132720688Y-73463993D01*
X132696941Y-73524250D01*
X132656334Y-73576534D01*
X132598858Y-73616647D01*
X132590273Y-73620707D01*
X132520739Y-73640794D01*
X132452135Y-73640402D01*
X132388020Y-73621666D01*
X132331954Y-73586723D01*
X132287500Y-73537707D01*
X132258216Y-73476754D01*
X132247663Y-73406000D01*
X132247761Y-73398975D01*
X132260207Y-73328903D01*
X132291049Y-73268940D01*
X132336762Y-73221209D01*
X132393823Y-73187832D01*
X132458709Y-73170931D01*
X132527895Y-73172629D01*
G37*
G36*
X137881576Y-72793102D02*
G01*
X137989860Y-72793180D01*
X138077574Y-72793455D01*
X138147044Y-72794043D01*
X138200593Y-72795060D01*
X138240546Y-72796623D01*
X138269228Y-72798846D01*
X138288963Y-72801846D01*
X138302075Y-72805740D01*
X138310891Y-72810644D01*
X138317733Y-72816673D01*
X138332878Y-72838572D01*
X138340982Y-72874298D01*
X138332285Y-72906254D01*
X138323478Y-72916509D01*
X138292947Y-72933542D01*
X138245053Y-72943246D01*
X138177069Y-72946325D01*
X138082002Y-72946325D01*
X138082002Y-73970043D01*
X138050684Y-73994678D01*
X138025896Y-74009382D01*
X137994697Y-74011948D01*
X137994511Y-74011893D01*
X137980498Y-74007659D01*
X137968856Y-74002687D01*
X137959341Y-73994900D01*
X137951705Y-73982223D01*
X137945703Y-73962580D01*
X137941090Y-73933895D01*
X137937618Y-73894093D01*
X137935042Y-73841099D01*
X137933116Y-73772836D01*
X137931595Y-73687229D01*
X137930231Y-73582203D01*
X137928780Y-73455681D01*
X137922890Y-72940431D01*
X137916993Y-73457773D01*
X137911097Y-73975115D01*
X137880037Y-73998299D01*
X137861655Y-74010597D01*
X137841297Y-74014862D01*
X137815211Y-74005302D01*
X137781445Y-73989121D01*
X137778376Y-73468514D01*
X137775308Y-72947908D01*
X137581341Y-72944170D01*
X137578858Y-72944122D01*
X137502733Y-72942294D01*
X137446635Y-72939559D01*
X137407116Y-72934959D01*
X137380729Y-72927536D01*
X137364025Y-72916332D01*
X137353557Y-72900389D01*
X137345876Y-72878748D01*
X137345189Y-72876256D01*
X137346935Y-72850509D01*
X137367648Y-72822762D01*
X137397311Y-72793100D01*
X137845735Y-72793100D01*
X137881576Y-72793102D01*
G37*
G36*
X139265671Y-72800762D02*
G01*
X139307802Y-72825128D01*
X139308625Y-72829027D01*
X139310363Y-72852930D01*
X139312255Y-72896042D01*
X139314212Y-72955505D01*
X139316147Y-73028462D01*
X139317969Y-73112055D01*
X139319589Y-73203427D01*
X139325482Y-73576465D01*
X139489482Y-73201466D01*
X139497881Y-73182270D01*
X139543603Y-73078357D01*
X139581454Y-72994004D01*
X139612581Y-72927375D01*
X139638133Y-72876635D01*
X139659258Y-72839947D01*
X139677105Y-72815476D01*
X139692821Y-72801386D01*
X139707554Y-72795840D01*
X139722454Y-72797004D01*
X139738668Y-72803041D01*
X139739216Y-72803290D01*
X139754410Y-72810402D01*
X139766598Y-72817882D01*
X139775246Y-72827503D01*
X139779825Y-72841036D01*
X139779802Y-72860253D01*
X139774646Y-72886923D01*
X139763825Y-72922819D01*
X139746808Y-72969711D01*
X139723063Y-73029372D01*
X139692059Y-73103571D01*
X139653263Y-73194081D01*
X139606145Y-73302673D01*
X139550173Y-73431117D01*
X139534810Y-73466300D01*
X139488012Y-73572740D01*
X139443831Y-73672158D01*
X139403225Y-73762463D01*
X139367152Y-73841567D01*
X139336572Y-73907378D01*
X139312441Y-73957809D01*
X139295719Y-73990768D01*
X139287363Y-74004167D01*
X139273612Y-74012602D01*
X139238771Y-74016950D01*
X139201993Y-73997915D01*
X139176078Y-73976930D01*
X139177571Y-73523507D01*
X139177643Y-73500891D01*
X139177882Y-73388588D01*
X139177799Y-73297516D01*
X139177325Y-73225690D01*
X139176392Y-73171124D01*
X139174930Y-73131836D01*
X139172870Y-73105841D01*
X139170143Y-73091153D01*
X139166681Y-73085788D01*
X139162414Y-73087763D01*
X139157208Y-73094846D01*
X139140035Y-73120717D01*
X139112746Y-73163069D01*
X139076690Y-73219772D01*
X139033215Y-73288693D01*
X138983668Y-73367699D01*
X138929400Y-73454658D01*
X138871757Y-73547438D01*
X138832196Y-73611097D01*
X138776627Y-73699969D01*
X138725277Y-73781462D01*
X138679501Y-73853460D01*
X138640655Y-73913845D01*
X138610093Y-73960503D01*
X138589173Y-73991316D01*
X138579248Y-74004167D01*
X138567301Y-74011501D01*
X138529037Y-74019186D01*
X138487622Y-74011646D01*
X138452742Y-73989969D01*
X138423812Y-73961039D01*
X138423812Y-72850961D01*
X138452742Y-72822030D01*
X138455095Y-72819705D01*
X138484802Y-72797723D01*
X138511888Y-72796526D01*
X138543318Y-72815622D01*
X138571143Y-72838144D01*
X138574501Y-73289205D01*
X138577859Y-73740267D01*
X138855260Y-73293203D01*
X138896449Y-73227047D01*
X138953046Y-73136893D01*
X139005772Y-73053759D01*
X139053215Y-72979823D01*
X139093965Y-72917263D01*
X139126613Y-72868257D01*
X139149747Y-72834983D01*
X139161956Y-72819619D01*
X139176601Y-72808801D01*
X139219538Y-72795229D01*
X139265671Y-72800762D01*
G37*
G36*
X137189454Y-72807356D02*
G01*
X137190577Y-72808547D01*
X137200943Y-72826404D01*
X137219216Y-72862888D01*
X137244296Y-72915502D01*
X137275080Y-72981752D01*
X137310466Y-73059140D01*
X137349353Y-73145172D01*
X137390639Y-73237350D01*
X137433223Y-73333181D01*
X137476001Y-73430166D01*
X137517873Y-73525812D01*
X137557737Y-73617621D01*
X137594490Y-73703098D01*
X137627032Y-73779746D01*
X137654261Y-73845071D01*
X137675074Y-73896576D01*
X137688369Y-73931766D01*
X137693046Y-73948144D01*
X137693011Y-73949211D01*
X137683348Y-73971579D01*
X137661728Y-73994678D01*
X137638864Y-74008017D01*
X137601737Y-74011039D01*
X137567336Y-73991115D01*
X137566951Y-73990680D01*
X137558152Y-73974808D01*
X137541390Y-73940023D01*
X137517762Y-73888855D01*
X137488365Y-73823832D01*
X137454295Y-73747480D01*
X137416650Y-73662330D01*
X137376525Y-73570908D01*
X137335016Y-73475743D01*
X137293222Y-73379362D01*
X137252238Y-73284294D01*
X137213160Y-73193068D01*
X137177086Y-73108210D01*
X137145112Y-73032249D01*
X137118334Y-72967714D01*
X137097849Y-72917131D01*
X137084754Y-72883030D01*
X137080146Y-72867938D01*
X137081220Y-72856592D01*
X137096545Y-72825419D01*
X137124465Y-72804176D01*
X137157821Y-72796832D01*
X137189454Y-72807356D01*
G37*
G36*
X147989429Y-73488135D02*
G01*
X147977362Y-73557681D01*
X147976591Y-73560544D01*
X147936266Y-73666070D01*
X147876553Y-73762968D01*
X147800529Y-73848317D01*
X147711269Y-73919198D01*
X147611849Y-73972689D01*
X147505343Y-74005871D01*
X147504722Y-74005996D01*
X147434303Y-74013505D01*
X147352249Y-74011941D01*
X147268288Y-74001975D01*
X147192149Y-73984277D01*
X147153073Y-73970549D01*
X147053059Y-73919033D01*
X146964569Y-73848969D01*
X146890006Y-73762946D01*
X146831771Y-73663552D01*
X146792269Y-73553377D01*
X146776150Y-73478334D01*
X146770004Y-73408359D01*
X146770184Y-73406000D01*
X146927802Y-73406000D01*
X146928317Y-73461562D01*
X146930771Y-73503661D01*
X146936435Y-73536098D01*
X146946580Y-73565997D01*
X146962474Y-73600478D01*
X146981711Y-73635166D01*
X147038848Y-73710443D01*
X147109383Y-73775901D01*
X147186446Y-73824665D01*
X147225469Y-73841970D01*
X147262685Y-73853059D01*
X147305644Y-73859160D01*
X147363244Y-73862159D01*
X147439126Y-73861489D01*
X147502946Y-73852691D01*
X147560810Y-73833728D01*
X147621215Y-73802640D01*
X147625924Y-73799815D01*
X147683404Y-73756021D01*
X147739149Y-73698665D01*
X147786534Y-73635410D01*
X147818937Y-73573919D01*
X147819607Y-73572188D01*
X147840023Y-73493194D01*
X147846686Y-73404778D01*
X147839600Y-73316429D01*
X147818769Y-73237634D01*
X147783094Y-73169776D01*
X147727282Y-73099381D01*
X147659025Y-73037707D01*
X147584009Y-72990733D01*
X147578509Y-72988035D01*
X147542576Y-72971441D01*
X147512222Y-72960949D01*
X147480160Y-72955173D01*
X147439104Y-72952725D01*
X147381768Y-72952218D01*
X147325865Y-72952738D01*
X147283825Y-72955198D01*
X147251426Y-72960866D01*
X147221556Y-72971008D01*
X147187106Y-72986889D01*
X147154111Y-73005081D01*
X147078126Y-73062369D01*
X147011954Y-73133476D01*
X146962474Y-73211522D01*
X146947202Y-73244508D01*
X146936810Y-73274464D01*
X146930959Y-73306617D01*
X146928380Y-73348088D01*
X146927802Y-73406000D01*
X146770184Y-73406000D01*
X146775318Y-73338832D01*
X146792084Y-73259343D01*
X146828417Y-73153491D01*
X146883024Y-73057521D01*
X146957776Y-72970333D01*
X147032587Y-72908276D01*
X147132252Y-72851820D01*
X147240655Y-72814434D01*
X147353577Y-72797509D01*
X147466799Y-72802438D01*
X147490242Y-72806315D01*
X147603446Y-72838645D01*
X147707111Y-72890803D01*
X147798788Y-72960620D01*
X147876022Y-73045924D01*
X147936364Y-73144547D01*
X147977362Y-73254318D01*
X147977901Y-73256375D01*
X147989699Y-73326481D01*
X147993417Y-73404778D01*
X147993542Y-73407401D01*
X147989429Y-73488135D01*
G37*
G36*
X151751494Y-73804671D02*
G01*
X151750211Y-73875267D01*
X151748738Y-73929369D01*
X151747113Y-73964618D01*
X151745371Y-73978654D01*
X151735774Y-73988722D01*
X151713139Y-74004816D01*
X151710145Y-74005983D01*
X151685459Y-74009788D01*
X151641715Y-74012952D01*
X151582442Y-74015474D01*
X151511169Y-74017352D01*
X151431424Y-74018585D01*
X151346735Y-74019172D01*
X151260633Y-74019112D01*
X151176645Y-74018404D01*
X151098300Y-74017046D01*
X151029126Y-74015037D01*
X150972654Y-74012376D01*
X150932411Y-74009062D01*
X150911926Y-74005093D01*
X150906468Y-74002254D01*
X150882062Y-73977472D01*
X150871651Y-73944904D01*
X150878662Y-73913943D01*
X150883867Y-73906320D01*
X150897102Y-73892925D01*
X150915861Y-73882822D01*
X150943152Y-73875560D01*
X150981981Y-73870685D01*
X151035356Y-73867744D01*
X151106283Y-73866282D01*
X151197770Y-73865849D01*
X151448526Y-73865675D01*
X151445287Y-73674144D01*
X151445225Y-73670501D01*
X151589380Y-73670501D01*
X151589448Y-73696094D01*
X151590560Y-73767635D01*
X151592955Y-73820924D01*
X151596526Y-73854193D01*
X151601167Y-73865675D01*
X151604561Y-73859369D01*
X151608202Y-73833835D01*
X151610838Y-73793095D01*
X151612469Y-73741918D01*
X151613096Y-73685070D01*
X151612719Y-73627318D01*
X151611338Y-73573430D01*
X151608952Y-73528171D01*
X151605561Y-73496310D01*
X151601167Y-73482612D01*
X151599938Y-73482463D01*
X151595384Y-73496113D01*
X151592077Y-73532460D01*
X151590062Y-73590818D01*
X151589380Y-73670501D01*
X151445225Y-73670501D01*
X151442048Y-73482612D01*
X151267736Y-73476719D01*
X151213486Y-73474710D01*
X151156166Y-73471415D01*
X151116707Y-73466448D01*
X151091792Y-73458617D01*
X151078103Y-73446727D01*
X151072323Y-73429586D01*
X151071133Y-73406000D01*
X151071671Y-73388302D01*
X151075835Y-73369480D01*
X151086981Y-73356244D01*
X151108427Y-73347399D01*
X151143489Y-73341753D01*
X151195487Y-73338111D01*
X151267736Y-73335280D01*
X151442048Y-73329387D01*
X151445245Y-73140803D01*
X151589380Y-73140803D01*
X151589499Y-73188134D01*
X151590018Y-73246684D01*
X151590878Y-73293314D01*
X151592001Y-73324141D01*
X151593309Y-73335280D01*
X151598379Y-73333591D01*
X151604375Y-73323217D01*
X151608550Y-73300860D01*
X151611183Y-73263626D01*
X151612558Y-73208619D01*
X151612953Y-73132945D01*
X151612916Y-73114737D01*
X151611874Y-73043870D01*
X151609489Y-72990929D01*
X151605881Y-72957788D01*
X151601167Y-72946325D01*
X151599652Y-72947397D01*
X151595320Y-72965664D01*
X151592092Y-73005170D01*
X151590076Y-73064141D01*
X151589380Y-73140803D01*
X151445245Y-73140803D01*
X151445284Y-73138485D01*
X151448520Y-72947582D01*
X151182065Y-72944007D01*
X151125936Y-72943213D01*
X151052728Y-72941885D01*
X150998173Y-72940250D01*
X150959233Y-72938026D01*
X150932873Y-72934928D01*
X150916054Y-72930672D01*
X150905742Y-72924974D01*
X150898899Y-72917552D01*
X150895625Y-72912723D01*
X150882911Y-72875705D01*
X150887420Y-72839079D01*
X150908383Y-72811448D01*
X150909811Y-72810497D01*
X150920860Y-72805491D01*
X150938065Y-72801521D01*
X150963914Y-72798474D01*
X151000895Y-72796236D01*
X151051497Y-72794693D01*
X151118206Y-72793732D01*
X151203511Y-72793239D01*
X151309901Y-72793100D01*
X151330664Y-72793104D01*
X151436724Y-72793342D01*
X151522084Y-72794109D01*
X151589188Y-72795629D01*
X151640482Y-72798128D01*
X151678410Y-72801830D01*
X151705418Y-72806960D01*
X151723951Y-72813743D01*
X151736454Y-72822405D01*
X151745371Y-72833170D01*
X151747092Y-72846923D01*
X151748719Y-72881951D01*
X151750193Y-72935860D01*
X151751479Y-73006289D01*
X151752542Y-73090879D01*
X151752892Y-73132945D01*
X151753345Y-73187268D01*
X151753853Y-73293095D01*
X151754031Y-73406000D01*
X151753858Y-73517522D01*
X151753354Y-73623439D01*
X151752843Y-73685070D01*
X151752554Y-73719942D01*
X151751494Y-73804671D01*
G37*
G36*
X146341962Y-72805496D02*
G01*
X146365358Y-72825327D01*
X146377521Y-72861147D01*
X146377392Y-72869893D01*
X146373704Y-72885733D01*
X146364951Y-72907696D01*
X146350038Y-72937741D01*
X146327868Y-72977829D01*
X146297348Y-73029918D01*
X146257383Y-73095968D01*
X146206878Y-73177939D01*
X146144737Y-73277791D01*
X146137506Y-73289380D01*
X146084898Y-73374057D01*
X146036630Y-73452370D01*
X145994068Y-73522054D01*
X145958583Y-73580844D01*
X145931542Y-73626474D01*
X145914313Y-73656681D01*
X145908266Y-73669197D01*
X145908278Y-73670273D01*
X145908946Y-73674243D01*
X145911411Y-73674443D01*
X145916737Y-73669245D01*
X145925984Y-73657024D01*
X145940217Y-73636152D01*
X145960496Y-73605004D01*
X145987884Y-73561953D01*
X146023443Y-73505373D01*
X146068237Y-73433636D01*
X146123326Y-73345117D01*
X146189774Y-73238189D01*
X146218280Y-73192443D01*
X146273368Y-73104851D01*
X146324614Y-73024415D01*
X146370606Y-72953289D01*
X146409929Y-72893632D01*
X146441169Y-72847599D01*
X146462912Y-72817347D01*
X146473745Y-72805033D01*
X146490877Y-72797450D01*
X146524902Y-72795882D01*
X146556526Y-72816673D01*
X146560135Y-72820514D01*
X146564968Y-72827516D01*
X146568951Y-72837600D01*
X146572166Y-72852814D01*
X146574696Y-72875209D01*
X146576622Y-72906833D01*
X146578027Y-72949736D01*
X146578992Y-73005966D01*
X146579599Y-73077573D01*
X146579932Y-73166606D01*
X146580071Y-73275113D01*
X146580099Y-73405144D01*
X146580099Y-73970043D01*
X146549043Y-73994471D01*
X146544831Y-73997736D01*
X146514858Y-74015474D01*
X146489712Y-74014960D01*
X146460593Y-73996382D01*
X146432768Y-73973865D01*
X146426874Y-73559023D01*
X146420981Y-73144182D01*
X146152409Y-73575530D01*
X146106915Y-73648551D01*
X146046420Y-73745215D01*
X145996220Y-73824371D01*
X145955033Y-73887555D01*
X145921577Y-73936301D01*
X145894570Y-73972146D01*
X145872732Y-73996623D01*
X145854781Y-74011270D01*
X145839434Y-74017620D01*
X145825411Y-74017210D01*
X145811430Y-74011574D01*
X145796208Y-74002248D01*
X145789630Y-73997578D01*
X145771637Y-73974541D01*
X145766303Y-73939069D01*
X145765778Y-73895141D01*
X145745677Y-73923173D01*
X145727951Y-73946561D01*
X145694598Y-73984072D01*
X145664998Y-74009524D01*
X145643440Y-74018900D01*
X145641385Y-74018751D01*
X145619462Y-74009048D01*
X145594258Y-73988840D01*
X145592462Y-73987029D01*
X145578978Y-73971133D01*
X145572039Y-73954682D01*
X145572703Y-73934481D01*
X145582028Y-73907333D01*
X145601071Y-73870040D01*
X145630891Y-73819405D01*
X145672545Y-73752231D01*
X145766828Y-73601710D01*
X145766828Y-72829003D01*
X145795046Y-72810513D01*
X145802299Y-72806449D01*
X145836291Y-72798719D01*
X145870231Y-72803913D01*
X145893645Y-72820925D01*
X145894945Y-72825524D01*
X145897824Y-72850822D01*
X145900782Y-72894428D01*
X145903633Y-72952787D01*
X145906190Y-73022346D01*
X145908266Y-73099550D01*
X145914160Y-73364747D01*
X146079878Y-73100294D01*
X146121142Y-73035269D01*
X146164937Y-72968068D01*
X146204529Y-72909165D01*
X146237895Y-72861512D01*
X146263008Y-72828061D01*
X146277843Y-72811765D01*
X146299704Y-72797307D01*
X146318188Y-72794739D01*
X146341962Y-72805496D01*
G37*
G36*
X150478881Y-73450236D02*
G01*
X150468936Y-73496578D01*
X150457494Y-73519361D01*
X150425770Y-73561195D01*
X150385811Y-73599282D01*
X150345900Y-73624979D01*
X150304624Y-73636299D01*
X150249377Y-73640680D01*
X150193490Y-73637075D01*
X150148097Y-73625456D01*
X150125980Y-73613484D01*
X150083620Y-73579647D01*
X150046349Y-73537830D01*
X150022493Y-73496578D01*
X150019207Y-73485840D01*
X150012608Y-73448034D01*
X150009983Y-73406000D01*
X150010424Y-73389754D01*
X150010498Y-73389054D01*
X150153537Y-73389054D01*
X150156362Y-73432471D01*
X150180352Y-73471361D01*
X150204346Y-73489274D01*
X150245714Y-73500292D01*
X150247476Y-73500276D01*
X150288811Y-73489449D01*
X150319271Y-73462627D01*
X150336084Y-73425760D01*
X150336482Y-73384799D01*
X150317692Y-73345694D01*
X150286342Y-73323785D01*
X150245726Y-73316473D01*
X150205108Y-73323776D01*
X150173737Y-73345694D01*
X150172222Y-73347610D01*
X150153537Y-73389054D01*
X150010498Y-73389054D01*
X150014849Y-73347738D01*
X150022493Y-73315421D01*
X150033242Y-73293670D01*
X150065396Y-73251052D01*
X150106456Y-73212495D01*
X150148097Y-73186543D01*
X150179412Y-73177266D01*
X150233710Y-73171075D01*
X150289951Y-73172833D01*
X150336293Y-73182778D01*
X150358044Y-73193528D01*
X150400662Y-73225681D01*
X150439219Y-73266742D01*
X150465171Y-73308382D01*
X150474448Y-73339697D01*
X150479590Y-73384799D01*
X150480639Y-73393995D01*
X150478881Y-73450236D01*
G37*
G36*
X145460265Y-72806499D02*
G01*
X145484262Y-72829040D01*
X145485718Y-72836241D01*
X145487870Y-72865143D01*
X145489771Y-72912915D01*
X145491415Y-72976729D01*
X145492797Y-73053754D01*
X145493911Y-73141161D01*
X145494751Y-73236121D01*
X145495309Y-73335804D01*
X145495582Y-73437381D01*
X145495561Y-73538023D01*
X145495242Y-73634900D01*
X145494618Y-73725183D01*
X145493684Y-73806042D01*
X145492432Y-73874648D01*
X145490858Y-73928172D01*
X145488955Y-73963784D01*
X145486717Y-73978654D01*
X145477137Y-73988689D01*
X145454485Y-74004719D01*
X145435562Y-74011569D01*
X145399374Y-74008196D01*
X145369032Y-73985991D01*
X145366262Y-73979385D01*
X145363130Y-73961134D01*
X145360546Y-73930550D01*
X145358469Y-73886025D01*
X145356861Y-73825957D01*
X145355680Y-73748737D01*
X145354886Y-73652763D01*
X145354439Y-73536427D01*
X145354299Y-73398125D01*
X145354299Y-72829003D01*
X145382517Y-72810513D01*
X145389791Y-72806352D01*
X145425687Y-72798374D01*
X145460265Y-72806499D01*
G37*
%TD*%
%LPC*%
D12*
%TO.C,REF\u002A\u002A*%
X124460000Y-74295000D03*
%TD*%
%TO.C,P1*%
X154940000Y-78740000D03*
%TD*%
%TO.C,G2*%
X149860000Y-83820000D03*
%TD*%
%TO.C,REF\u002A\u002A*%
X124460000Y-83185000D03*
%TD*%
D13*
%TO.C,H2*%
X159500000Y-78740000D03*
%TD*%
D12*
%TO.C,OUT1*%
X154940000Y-83820000D03*
%TD*%
%TO.C,T1*%
X129540000Y-83820000D03*
%TD*%
%TO.C,A1*%
X129540000Y-78740000D03*
%TD*%
D13*
%TO.C,J1*%
X142810000Y-76200000D03*
%TD*%
%TO.C,H1*%
X124500000Y-78740000D03*
%TD*%
D12*
%TO.C,REF\u002A\u002A*%
X160020000Y-83185000D03*
%TD*%
%TO.C,N1*%
X129540000Y-73660000D03*
%TD*%
%TO.C,BZ1*%
X139700000Y-83820000D03*
%TD*%
%TO.C,V5*%
X154940000Y-73660000D03*
%TD*%
%TO.C,BZ2*%
X144780000Y-83820000D03*
%TD*%
%TO.C,REF\u002A\u002A*%
X160020000Y-74295000D03*
%TD*%
%TO.C,G1*%
X134620000Y-83820000D03*
%TD*%
M02*
