%TF.GenerationSoftware,KiCad,Pcbnew,(6.0.5)*%
%TF.CreationDate,2023-09-23T13:50:41+09:00*%
%TF.ProjectId,20230918_Barcoder8,32303233-3039-4313-985f-426172636f64,rev?*%
%TF.SameCoordinates,Original*%
%TF.FileFunction,Legend,Top*%
%TF.FilePolarity,Positive*%
%FSLAX46Y46*%
G04 Gerber Fmt 4.6, Leading zero omitted, Abs format (unit mm)*
G04 Created by KiCad (PCBNEW (6.0.5)) date 2023-09-23 13:50:41*
%MOMM*%
%LPD*%
G01*
G04 APERTURE LIST*
G04 Aperture macros list*
%AMRoundRect*
0 Rectangle with rounded corners*
0 $1 Rounding radius*
0 $2 $3 $4 $5 $6 $7 $8 $9 X,Y pos of 4 corners*
0 Add a 4 corners polygon primitive as box body*
4,1,4,$2,$3,$4,$5,$6,$7,$8,$9,$2,$3,0*
0 Add four circle primitives for the rounded corners*
1,1,$1+$1,$2,$3*
1,1,$1+$1,$4,$5*
1,1,$1+$1,$6,$7*
1,1,$1+$1,$8,$9*
0 Add four rect primitives between the rounded corners*
20,1,$1+$1,$2,$3,$4,$5,0*
20,1,$1+$1,$4,$5,$6,$7,0*
20,1,$1+$1,$6,$7,$8,$9,0*
20,1,$1+$1,$8,$9,$2,$3,0*%
G04 Aperture macros list end*
%ADD10C,0.150000*%
%ADD11C,0.120000*%
%ADD12RoundRect,0.100000X-0.850000X-0.850000X0.850000X-0.850000X0.850000X0.850000X-0.850000X0.850000X0*%
%ADD13RoundRect,0.350000X-0.337500X-0.475000X0.337500X-0.475000X0.337500X0.475000X-0.337500X0.475000X0*%
%ADD14RoundRect,0.250000X-0.825000X-0.150000X0.825000X-0.150000X0.825000X0.150000X-0.825000X0.150000X0*%
%ADD15C,2.400000*%
G04 APERTURE END LIST*
D10*
%TO.C,C4*%
X149460833Y-78052142D02*
X149413214Y-78099761D01*
X149270357Y-78147380D01*
X149175119Y-78147380D01*
X149032261Y-78099761D01*
X148937023Y-78004523D01*
X148889404Y-77909285D01*
X148841785Y-77718809D01*
X148841785Y-77575952D01*
X148889404Y-77385476D01*
X148937023Y-77290238D01*
X149032261Y-77195000D01*
X149175119Y-77147380D01*
X149270357Y-77147380D01*
X149413214Y-77195000D01*
X149460833Y-77242619D01*
X150317976Y-77480714D02*
X150317976Y-78147380D01*
X150079880Y-77099761D02*
X149841785Y-77814047D01*
X150460833Y-77814047D01*
%TO.C,P1*%
X152852380Y-78843095D02*
X151852380Y-78843095D01*
X151852380Y-78462142D01*
X151900000Y-78366904D01*
X151947619Y-78319285D01*
X152042857Y-78271666D01*
X152185714Y-78271666D01*
X152280952Y-78319285D01*
X152328571Y-78366904D01*
X152376190Y-78462142D01*
X152376190Y-78843095D01*
X152852380Y-77319285D02*
X152852380Y-77890714D01*
X152852380Y-77605000D02*
X151852380Y-77605000D01*
X151995238Y-77700238D01*
X152090476Y-77795476D01*
X152138095Y-77890714D01*
%TO.C,G2*%
X146947000Y-84415285D02*
X146899380Y-84510523D01*
X146899380Y-84653380D01*
X146947000Y-84796238D01*
X147042238Y-84891476D01*
X147137476Y-84939095D01*
X147327952Y-84986714D01*
X147470809Y-84986714D01*
X147661285Y-84939095D01*
X147756523Y-84891476D01*
X147851761Y-84796238D01*
X147899380Y-84653380D01*
X147899380Y-84558142D01*
X147851761Y-84415285D01*
X147804142Y-84367666D01*
X147470809Y-84367666D01*
X147470809Y-84558142D01*
X146994619Y-83986714D02*
X146947000Y-83939095D01*
X146899380Y-83843857D01*
X146899380Y-83605761D01*
X146947000Y-83510523D01*
X146994619Y-83462904D01*
X147089857Y-83415285D01*
X147185095Y-83415285D01*
X147327952Y-83462904D01*
X147899380Y-84034333D01*
X147899380Y-83415285D01*
%TO.C,U1*%
X137414095Y-72604380D02*
X137414095Y-73413904D01*
X137461714Y-73509142D01*
X137509333Y-73556761D01*
X137604571Y-73604380D01*
X137795047Y-73604380D01*
X137890285Y-73556761D01*
X137937904Y-73509142D01*
X137985523Y-73413904D01*
X137985523Y-72604380D01*
X138985523Y-73604380D02*
X138414095Y-73604380D01*
X138699809Y-73604380D02*
X138699809Y-72604380D01*
X138604571Y-72747238D01*
X138509333Y-72842476D01*
X138414095Y-72890095D01*
%TO.C,C3*%
X134453333Y-73509142D02*
X134405714Y-73556761D01*
X134262857Y-73604380D01*
X134167619Y-73604380D01*
X134024761Y-73556761D01*
X133929523Y-73461523D01*
X133881904Y-73366285D01*
X133834285Y-73175809D01*
X133834285Y-73032952D01*
X133881904Y-72842476D01*
X133929523Y-72747238D01*
X134024761Y-72652000D01*
X134167619Y-72604380D01*
X134262857Y-72604380D01*
X134405714Y-72652000D01*
X134453333Y-72699619D01*
X134786666Y-72604380D02*
X135405714Y-72604380D01*
X135072380Y-72985333D01*
X135215238Y-72985333D01*
X135310476Y-73032952D01*
X135358095Y-73080571D01*
X135405714Y-73175809D01*
X135405714Y-73413904D01*
X135358095Y-73509142D01*
X135310476Y-73556761D01*
X135215238Y-73604380D01*
X134929523Y-73604380D01*
X134834285Y-73556761D01*
X134786666Y-73509142D01*
%TO.C,OUT1*%
X151852380Y-84788190D02*
X151852380Y-84597714D01*
X151900000Y-84502476D01*
X151995238Y-84407238D01*
X152185714Y-84359619D01*
X152519047Y-84359619D01*
X152709523Y-84407238D01*
X152804761Y-84502476D01*
X152852380Y-84597714D01*
X152852380Y-84788190D01*
X152804761Y-84883428D01*
X152709523Y-84978666D01*
X152519047Y-85026285D01*
X152185714Y-85026285D01*
X151995238Y-84978666D01*
X151900000Y-84883428D01*
X151852380Y-84788190D01*
X151852380Y-83931047D02*
X152661904Y-83931047D01*
X152757142Y-83883428D01*
X152804761Y-83835809D01*
X152852380Y-83740571D01*
X152852380Y-83550095D01*
X152804761Y-83454857D01*
X152757142Y-83407238D01*
X152661904Y-83359619D01*
X151852380Y-83359619D01*
X151852380Y-83026285D02*
X151852380Y-82454857D01*
X152852380Y-82740571D02*
X151852380Y-82740571D01*
X152852380Y-81597714D02*
X152852380Y-82169142D01*
X152852380Y-81883428D02*
X151852380Y-81883428D01*
X151995238Y-81978666D01*
X152090476Y-82073904D01*
X152138095Y-82169142D01*
%TO.C,T1*%
X130516380Y-82295904D02*
X130516380Y-81724476D01*
X131516380Y-82010190D02*
X130516380Y-82010190D01*
X131516380Y-80867333D02*
X131516380Y-81438761D01*
X131516380Y-81153047D02*
X130516380Y-81153047D01*
X130659238Y-81248285D01*
X130754476Y-81343523D01*
X130802095Y-81438761D01*
%TO.C,A1*%
X131103666Y-77295285D02*
X131103666Y-76819095D01*
X131389380Y-77390523D02*
X130389380Y-77057190D01*
X131389380Y-76723857D01*
X131389380Y-75866714D02*
X131389380Y-76438142D01*
X131389380Y-76152428D02*
X130389380Y-76152428D01*
X130532238Y-76247666D01*
X130627476Y-76342904D01*
X130675095Y-76438142D01*
%TO.C,C5*%
X138845833Y-81002142D02*
X138798214Y-81049761D01*
X138655357Y-81097380D01*
X138560119Y-81097380D01*
X138417261Y-81049761D01*
X138322023Y-80954523D01*
X138274404Y-80859285D01*
X138226785Y-80668809D01*
X138226785Y-80525952D01*
X138274404Y-80335476D01*
X138322023Y-80240238D01*
X138417261Y-80145000D01*
X138560119Y-80097380D01*
X138655357Y-80097380D01*
X138798214Y-80145000D01*
X138845833Y-80192619D01*
X139750595Y-80097380D02*
X139274404Y-80097380D01*
X139226785Y-80573571D01*
X139274404Y-80525952D01*
X139369642Y-80478333D01*
X139607738Y-80478333D01*
X139702976Y-80525952D01*
X139750595Y-80573571D01*
X139798214Y-80668809D01*
X139798214Y-80906904D01*
X139750595Y-81002142D01*
X139702976Y-81049761D01*
X139607738Y-81097380D01*
X139369642Y-81097380D01*
X139274404Y-81049761D01*
X139226785Y-81002142D01*
%TO.C,N1*%
X132278380Y-74261904D02*
X131278380Y-74261904D01*
X132278380Y-73690476D01*
X131278380Y-73690476D01*
X132278380Y-72690476D02*
X132278380Y-73261904D01*
X132278380Y-72976190D02*
X131278380Y-72976190D01*
X131421238Y-73071428D01*
X131516476Y-73166666D01*
X131564095Y-73261904D01*
%TO.C,BZ1*%
X137088571Y-84700952D02*
X137136190Y-84558095D01*
X137183809Y-84510476D01*
X137279047Y-84462857D01*
X137421904Y-84462857D01*
X137517142Y-84510476D01*
X137564761Y-84558095D01*
X137612380Y-84653333D01*
X137612380Y-85034285D01*
X136612380Y-85034285D01*
X136612380Y-84700952D01*
X136660000Y-84605714D01*
X136707619Y-84558095D01*
X136802857Y-84510476D01*
X136898095Y-84510476D01*
X136993333Y-84558095D01*
X137040952Y-84605714D01*
X137088571Y-84700952D01*
X137088571Y-85034285D01*
X136612380Y-84129523D02*
X136612380Y-83462857D01*
X137612380Y-84129523D01*
X137612380Y-83462857D01*
X137612380Y-82558095D02*
X137612380Y-83129523D01*
X137612380Y-82843809D02*
X136612380Y-82843809D01*
X136755238Y-82939047D01*
X136850476Y-83034285D01*
X136898095Y-83129523D01*
%TO.C,V5*%
X151852380Y-73834523D02*
X152852380Y-73501190D01*
X151852380Y-73167857D01*
X151852380Y-72358333D02*
X151852380Y-72834523D01*
X152328571Y-72882142D01*
X152280952Y-72834523D01*
X152233333Y-72739285D01*
X152233333Y-72501190D01*
X152280952Y-72405952D01*
X152328571Y-72358333D01*
X152423809Y-72310714D01*
X152661904Y-72310714D01*
X152757142Y-72358333D01*
X152804761Y-72405952D01*
X152852380Y-72501190D01*
X152852380Y-72739285D01*
X152804761Y-72834523D01*
X152757142Y-72882142D01*
%TO.C,C1*%
X134453333Y-78081142D02*
X134405714Y-78128761D01*
X134262857Y-78176380D01*
X134167619Y-78176380D01*
X134024761Y-78128761D01*
X133929523Y-78033523D01*
X133881904Y-77938285D01*
X133834285Y-77747809D01*
X133834285Y-77604952D01*
X133881904Y-77414476D01*
X133929523Y-77319238D01*
X134024761Y-77224000D01*
X134167619Y-77176380D01*
X134262857Y-77176380D01*
X134405714Y-77224000D01*
X134453333Y-77271619D01*
X135405714Y-78176380D02*
X134834285Y-78176380D01*
X135120000Y-78176380D02*
X135120000Y-77176380D01*
X135024761Y-77319238D01*
X134929523Y-77414476D01*
X134834285Y-77462095D01*
%TO.C,BZ2*%
X142168571Y-84700952D02*
X142216190Y-84558095D01*
X142263809Y-84510476D01*
X142359047Y-84462857D01*
X142501904Y-84462857D01*
X142597142Y-84510476D01*
X142644761Y-84558095D01*
X142692380Y-84653333D01*
X142692380Y-85034285D01*
X141692380Y-85034285D01*
X141692380Y-84700952D01*
X141740000Y-84605714D01*
X141787619Y-84558095D01*
X141882857Y-84510476D01*
X141978095Y-84510476D01*
X142073333Y-84558095D01*
X142120952Y-84605714D01*
X142168571Y-84700952D01*
X142168571Y-85034285D01*
X141692380Y-84129523D02*
X141692380Y-83462857D01*
X142692380Y-84129523D01*
X142692380Y-83462857D01*
X141787619Y-83129523D02*
X141740000Y-83081904D01*
X141692380Y-82986666D01*
X141692380Y-82748571D01*
X141740000Y-82653333D01*
X141787619Y-82605714D01*
X141882857Y-82558095D01*
X141978095Y-82558095D01*
X142120952Y-82605714D01*
X142692380Y-83177142D01*
X142692380Y-82558095D01*
%TO.C,G1*%
X131961000Y-84542285D02*
X131913380Y-84637523D01*
X131913380Y-84780380D01*
X131961000Y-84923238D01*
X132056238Y-85018476D01*
X132151476Y-85066095D01*
X132341952Y-85113714D01*
X132484809Y-85113714D01*
X132675285Y-85066095D01*
X132770523Y-85018476D01*
X132865761Y-84923238D01*
X132913380Y-84780380D01*
X132913380Y-84685142D01*
X132865761Y-84542285D01*
X132818142Y-84494666D01*
X132484809Y-84494666D01*
X132484809Y-84685142D01*
X132913380Y-83542285D02*
X132913380Y-84113714D01*
X132913380Y-83828000D02*
X131913380Y-83828000D01*
X132056238Y-83923238D01*
X132151476Y-84018476D01*
X132199095Y-84113714D01*
%TO.C,C2*%
X149460833Y-73607142D02*
X149413214Y-73654761D01*
X149270357Y-73702380D01*
X149175119Y-73702380D01*
X149032261Y-73654761D01*
X148937023Y-73559523D01*
X148889404Y-73464285D01*
X148841785Y-73273809D01*
X148841785Y-73130952D01*
X148889404Y-72940476D01*
X148937023Y-72845238D01*
X149032261Y-72750000D01*
X149175119Y-72702380D01*
X149270357Y-72702380D01*
X149413214Y-72750000D01*
X149460833Y-72797619D01*
X149841785Y-72797619D02*
X149889404Y-72750000D01*
X149984642Y-72702380D01*
X150222738Y-72702380D01*
X150317976Y-72750000D01*
X150365595Y-72797619D01*
X150413214Y-72892857D01*
X150413214Y-72988095D01*
X150365595Y-73130952D01*
X149794166Y-73702380D01*
X150413214Y-73702380D01*
D11*
%TO.C,REF\u002A\u002A*%
X123130000Y-72965000D02*
X124460000Y-72965000D01*
X125790000Y-75565000D02*
X125790000Y-75625000D01*
X123130000Y-74295000D02*
X123130000Y-72965000D01*
X123130000Y-75565000D02*
X125790000Y-75565000D01*
X123130000Y-75625000D02*
X125790000Y-75625000D01*
X123130000Y-75565000D02*
X123130000Y-75625000D01*
%TO.C,C4*%
X149366248Y-80110000D02*
X149888752Y-80110000D01*
X149366248Y-78640000D02*
X149888752Y-78640000D01*
%TO.C,P1*%
X153610000Y-77410000D02*
X154940000Y-77410000D01*
X153610000Y-78740000D02*
X153610000Y-77410000D01*
X153610000Y-80010000D02*
X153610000Y-80070000D01*
X153610000Y-80010000D02*
X156270000Y-80010000D01*
X153610000Y-80070000D02*
X156270000Y-80070000D01*
X156270000Y-80010000D02*
X156270000Y-80070000D01*
%TO.C,G2*%
X148530000Y-85090000D02*
X148530000Y-85150000D01*
X148530000Y-83820000D02*
X148530000Y-82490000D01*
X151190000Y-85090000D02*
X151190000Y-85150000D01*
X148530000Y-85150000D02*
X151190000Y-85150000D01*
X148530000Y-82490000D02*
X149860000Y-82490000D01*
X148530000Y-85090000D02*
X151190000Y-85090000D01*
%TO.C,U1*%
X142810000Y-73640000D02*
X144760000Y-73640000D01*
X142810000Y-78760000D02*
X144760000Y-78760000D01*
X142810000Y-73640000D02*
X139360000Y-73640000D01*
X142810000Y-78760000D02*
X140860000Y-78760000D01*
%TO.C,C3*%
X134591248Y-74195000D02*
X135113752Y-74195000D01*
X134591248Y-75665000D02*
X135113752Y-75665000D01*
%TO.C,REF\u002A\u002A*%
X123130000Y-84455000D02*
X125790000Y-84455000D01*
X125790000Y-84455000D02*
X125790000Y-84515000D01*
X123130000Y-83185000D02*
X123130000Y-81855000D01*
X123130000Y-84455000D02*
X123130000Y-84515000D01*
X123130000Y-84515000D02*
X125790000Y-84515000D01*
X123130000Y-81855000D02*
X124460000Y-81855000D01*
%TO.C,OUT1*%
X153610000Y-83820000D02*
X153610000Y-82490000D01*
X156270000Y-85090000D02*
X156270000Y-85150000D01*
X153610000Y-85090000D02*
X153610000Y-85150000D01*
X153610000Y-85150000D02*
X156270000Y-85150000D01*
X153610000Y-85090000D02*
X156270000Y-85090000D01*
X153610000Y-82490000D02*
X154940000Y-82490000D01*
%TO.C,T1*%
X128210000Y-83820000D02*
X128210000Y-82490000D01*
X128210000Y-85150000D02*
X130870000Y-85150000D01*
X128210000Y-82490000D02*
X129540000Y-82490000D01*
X128210000Y-85090000D02*
X130870000Y-85090000D01*
X130870000Y-85090000D02*
X130870000Y-85150000D01*
X128210000Y-85090000D02*
X128210000Y-85150000D01*
%TO.C,A1*%
X128210000Y-80070000D02*
X130870000Y-80070000D01*
X128210000Y-80010000D02*
X128210000Y-80070000D01*
X130870000Y-80010000D02*
X130870000Y-80070000D01*
X128210000Y-78740000D02*
X128210000Y-77410000D01*
X128210000Y-80010000D02*
X130870000Y-80010000D01*
X128210000Y-77410000D02*
X129540000Y-77410000D01*
%TO.C,C5*%
X141926248Y-79910000D02*
X142448752Y-79910000D01*
X141926248Y-81380000D02*
X142448752Y-81380000D01*
%TO.C,REF\u002A\u002A*%
X158690000Y-81855000D02*
X160020000Y-81855000D01*
X158690000Y-84455000D02*
X161350000Y-84455000D01*
X158690000Y-84515000D02*
X161350000Y-84515000D01*
X158690000Y-84455000D02*
X158690000Y-84515000D01*
X161350000Y-84455000D02*
X161350000Y-84515000D01*
X158690000Y-83185000D02*
X158690000Y-81855000D01*
%TO.C,N1*%
X128210000Y-74990000D02*
X130870000Y-74990000D01*
X128210000Y-74930000D02*
X130870000Y-74930000D01*
X128210000Y-72330000D02*
X129540000Y-72330000D01*
X130870000Y-74930000D02*
X130870000Y-74990000D01*
X128210000Y-73660000D02*
X128210000Y-72330000D01*
X128210000Y-74930000D02*
X128210000Y-74990000D01*
%TO.C,BZ1*%
X138370000Y-83820000D02*
X138370000Y-82490000D01*
X138370000Y-85090000D02*
X141030000Y-85090000D01*
X138370000Y-85090000D02*
X138370000Y-85150000D01*
X138370000Y-85150000D02*
X141030000Y-85150000D01*
X138370000Y-82490000D02*
X139700000Y-82490000D01*
X141030000Y-85090000D02*
X141030000Y-85150000D01*
%TO.C,V5*%
X153610000Y-74990000D02*
X156270000Y-74990000D01*
X153610000Y-74930000D02*
X156270000Y-74930000D01*
X156270000Y-74930000D02*
X156270000Y-74990000D01*
X153610000Y-74930000D02*
X153610000Y-74990000D01*
X153610000Y-72330000D02*
X154940000Y-72330000D01*
X153610000Y-73660000D02*
X153610000Y-72330000D01*
%TO.C,C1*%
X134591248Y-80110000D02*
X135113752Y-80110000D01*
X134591248Y-78640000D02*
X135113752Y-78640000D01*
%TO.C,BZ2*%
X143450000Y-85090000D02*
X143450000Y-85150000D01*
X143450000Y-85150000D02*
X146110000Y-85150000D01*
X143450000Y-85090000D02*
X146110000Y-85090000D01*
X146110000Y-85090000D02*
X146110000Y-85150000D01*
X143450000Y-82490000D02*
X144780000Y-82490000D01*
X143450000Y-83820000D02*
X143450000Y-82490000D01*
%TO.C,REF\u002A\u002A*%
X158690000Y-75565000D02*
X158690000Y-75625000D01*
X158690000Y-75625000D02*
X161350000Y-75625000D01*
X161350000Y-75565000D02*
X161350000Y-75625000D01*
X158690000Y-74295000D02*
X158690000Y-72965000D01*
X158690000Y-75565000D02*
X161350000Y-75565000D01*
X158690000Y-72965000D02*
X160020000Y-72965000D01*
%TO.C,G1*%
X133290000Y-85090000D02*
X133290000Y-85150000D01*
X133290000Y-83820000D02*
X133290000Y-82490000D01*
X133290000Y-85090000D02*
X135950000Y-85090000D01*
X133290000Y-85150000D02*
X135950000Y-85150000D01*
X133290000Y-82490000D02*
X134620000Y-82490000D01*
X135950000Y-85090000D02*
X135950000Y-85150000D01*
%TO.C,C2*%
X149366248Y-75665000D02*
X149888752Y-75665000D01*
X149366248Y-74195000D02*
X149888752Y-74195000D01*
%TD*%
%LPC*%
D12*
%TO.C,REF\u002A\u002A*%
X124460000Y-74295000D03*
%TD*%
D13*
%TO.C,C4*%
X148590000Y-79375000D03*
X150665000Y-79375000D03*
%TD*%
D12*
%TO.C,P1*%
X154940000Y-78740000D03*
%TD*%
%TO.C,G2*%
X149860000Y-83820000D03*
%TD*%
D14*
%TO.C,U1*%
X140335000Y-74295000D03*
X140335000Y-75565000D03*
X140335000Y-76835000D03*
X140335000Y-78105000D03*
X145285000Y-78105000D03*
X145285000Y-76835000D03*
X145285000Y-75565000D03*
X145285000Y-74295000D03*
%TD*%
D13*
%TO.C,C3*%
X133815000Y-74930000D03*
X135890000Y-74930000D03*
%TD*%
D12*
%TO.C,REF\u002A\u002A*%
X124460000Y-83185000D03*
%TD*%
D15*
%TO.C,H2*%
X159500000Y-78740000D03*
%TD*%
D12*
%TO.C,OUT1*%
X154940000Y-83820000D03*
%TD*%
%TO.C,T1*%
X129540000Y-83820000D03*
%TD*%
%TO.C,A1*%
X129540000Y-78740000D03*
%TD*%
D13*
%TO.C,C5*%
X141150000Y-80645000D03*
X143225000Y-80645000D03*
%TD*%
D15*
%TO.C,J1*%
X142810000Y-76200000D03*
%TD*%
%TO.C,H1*%
X124500000Y-78740000D03*
%TD*%
D12*
%TO.C,REF\u002A\u002A*%
X160020000Y-83185000D03*
%TD*%
%TO.C,N1*%
X129540000Y-73660000D03*
%TD*%
%TO.C,BZ1*%
X139700000Y-83820000D03*
%TD*%
%TO.C,V5*%
X154940000Y-73660000D03*
%TD*%
D13*
%TO.C,C1*%
X133815000Y-79375000D03*
X135890000Y-79375000D03*
%TD*%
D12*
%TO.C,BZ2*%
X144780000Y-83820000D03*
%TD*%
%TO.C,REF\u002A\u002A*%
X160020000Y-74295000D03*
%TD*%
%TO.C,G1*%
X134620000Y-83820000D03*
%TD*%
D13*
%TO.C,C2*%
X148590000Y-74930000D03*
X150665000Y-74930000D03*
%TD*%
M02*
