M48
; DRILL file {KiCad (6.0.5)} date Sat Sep 23 13:50:47 2023
; FORMAT={-:-/ absolute / metric / decimal}
; #@! TF.CreationDate,2023-09-23T13:50:47+09:00
; #@! TF.GenerationSoftware,Kicad,Pcbnew,(6.0.5)
; #@! TF.FileFunction,MixedPlating,1,2
FMAT,2
METRIC
; #@! TA.AperFunction,Plated,PTH,ViaDrill
T1C0.400
; #@! TA.AperFunction,Plated,PTH,ComponentDrill
T2C1.000
; #@! TA.AperFunction,Plated,PTH,ComponentDrill
T3C1.800
; #@! TA.AperFunction,NonPlated,NPTH,ComponentDrill
T4C2.200
%
G90
G05
T1
X128.499Y-81.204
X128.575Y-76.073
X132.639Y-76.352
X137.541Y-79.35
X137.897Y-81.991
X141.3Y-82.245
X143.078Y-82.271
X143.332Y-73.406
X146.279Y-79.858
X147.371Y-73.406
X147.447Y-82.677
X149.631Y-76.53
X149.682Y-81.305
X152.4Y-75.438
X155.88Y-76.175
X155.905Y-81.28
T2
X124.46Y-74.295
X124.46Y-83.185
X129.54Y-73.66
X129.54Y-78.74
X129.54Y-83.82
X134.62Y-83.82
X139.7Y-83.82
X144.78Y-83.82
X149.86Y-83.82
X154.94Y-73.66
X154.94Y-78.74
X154.94Y-83.82
X160.02Y-74.295
X160.02Y-83.185
T3
X142.81Y-76.2
T4
X124.5Y-78.74
X159.5Y-78.74
T0
M30
